<?xml version="1.0" encoding="UTF-8" standalone="no"?><svg xmlns="http://www.w3.org/2000/svg" xmlns:xlink="http://www.w3.org/1999/xlink" contentScriptType="application/ecmascript" contentStyleType="text/css" height="2336px" preserveAspectRatio="none" style="width:2746px;height:2336px;" version="1.1" viewBox="0 0 2746 2336" width="2746px" zoomAndPan="magnify"><defs><filter height="300%" id="f1kbdp1lnky42h" width="300%" x="-1" y="-1"><feGaussianBlur result="blurOut" stdDeviation="4.0"/><feColorMatrix in="blurOut" result="blurOut2" type="matrix" values="0 0 0 0 0 0 0 0 0 0 0 0 0 0 0 0 0 0 .4 0"/><feOffset dx="8.0" dy="8.0" in="blurOut2" result="blurOut3"/><feBlend in="SourceGraphic" in2="blurOut3" mode="normal"/></filter></defs><g><rect fill="#FF6347" height="103.8125" rx="15" ry="15" style="stroke: #FF0000; stroke-width: 4.0;" width="532" x="1118" y="4"/><text fill="#000000" font-family="sans-serif" font-size="36" lengthAdjust="spacingAndGlyphs" textLength="488" x="1134" y="47.416">OpenFoam | Case Structure</text><text fill="#000000" font-family="sans-serif" font-size="36" lengthAdjust="spacingAndGlyphs" textLength="294" x="1243" y="89.3223">Folders and Files</text><!--MD5=[16fe9e93fb9d53fef35eac975351d868]
cluster Directories--><polygon fill="#FFFFFF" filter="url(#f1kbdp1lnky42h)" points="520,327.8125,706,327.8125,720,372.4063,1230,372.4063,1230,501.8125,520,501.8125,520,327.8125" style="stroke: #000000; stroke-width: 3.0;"/><line style="stroke: #000000; stroke-width: 3.0;" x1="520" x2="720" y1="372.4063" y2="372.4063"/><text fill="#000000" font-family="sans-serif" font-size="28" font-weight="bold" lengthAdjust="spacingAndGlyphs" textLength="174" x="528" y="357.8027">Directories</text><!--MD5=[ab91a1aff15979e1fbe8c1ac7d861c49]
cluster Subdirectories--><polygon fill="#FFFFFF" filter="url(#f1kbdp1lnky42h)" points="670,567.8125,914,567.8125,928,612.4063,934,612.4063,934,741.8125,670,741.8125,670,567.8125" style="stroke: #000000; stroke-width: 3.0;"/><line style="stroke: #000000; stroke-width: 3.0;" x1="670" x2="928" y1="612.4063" y2="612.4063"/><text fill="#000000" font-family="sans-serif" font-size="28" font-weight="bold" lengthAdjust="spacingAndGlyphs" textLength="232" x="678" y="597.8027">Subdirectories</text><!--MD5=[6a7bbfa3d72452af17f24c65754d4e2c]
cluster Files--><polygon fill="#FFFFFF" filter="url(#f1kbdp1lnky42h)" points="44,807.8125,128,807.8125,142,852.4063,2358,852.4063,2358,981.8125,44,981.8125,44,807.8125" style="stroke: #000000; stroke-width: 3.0;"/><line style="stroke: #000000; stroke-width: 3.0;" x1="44" x2="142" y1="852.4063" y2="852.4063"/><text fill="#000000" font-family="sans-serif" font-size="28" font-weight="bold" lengthAdjust="spacingAndGlyphs" textLength="72" x="52" y="837.8027">Files</text><!--MD5=[7c3573fc6a07ac56a1629d8b947a810f]
cluster Dictionaries--><polygon fill="#FFFFFF" filter="url(#f1kbdp1lnky42h)" points="228,1047.8125,426,1047.8125,440,1092.4063,2702,1092.4063,2702,1385.8125,228,1385.8125,228,1047.8125" style="stroke: #000000; stroke-width: 3.0;"/><line style="stroke: #000000; stroke-width: 3.0;" x1="228" x2="440" y1="1092.4063" y2="1092.4063"/><text fill="#000000" font-family="sans-serif" font-size="28" font-weight="bold" lengthAdjust="spacingAndGlyphs" textLength="186" x="236" y="1077.8027">Dictionaries</text><!--MD5=[bd7d6224f271ac7c51388082d371687e]
cluster Meta Data--><polygon fill="#FFFFFF" filter="url(#f1kbdp1lnky42h)" points="638,1451.8125,806,1451.8125,820,1496.4063,2664,1496.4063,2664,1789.8125,638,1789.8125,638,1451.8125" style="stroke: #000000; stroke-width: 3.0;"/><line style="stroke: #000000; stroke-width: 3.0;" x1="638" x2="820" y1="1496.4063" y2="1496.4063"/><text fill="#000000" font-family="sans-serif" font-size="28" font-weight="bold" lengthAdjust="spacingAndGlyphs" textLength="156" x="646" y="1481.8027">Meta Data</text><!--MD5=[7dfc651d89c0c59473e2d8629fa75a79]
cluster Sample Data--><polygon fill="#FFFFFF" filter="url(#f1kbdp1lnky42h)" points="604,1855.8125,810,1855.8125,824,1900.4063,2628,1900.4063,2628,2193.8125,604,2193.8125,604,1855.8125" style="stroke: #000000; stroke-width: 3.0;"/><line style="stroke: #000000; stroke-width: 3.0;" x1="604" x2="824" y1="1900.4063" y2="1900.4063"/><text fill="#000000" font-family="sans-serif" font-size="28" font-weight="bold" lengthAdjust="spacingAndGlyphs" textLength="194" x="612" y="1885.8027">Sample Data</text><!--MD5=[c06a3d9730123df9b4c0c7fe1eeba475]
entity 0--><rect fill="#FEFECE" filter="url(#f1kbdp1lnky42h)" height="72.5938" style="stroke: #A80036; stroke-width: 3.0;" width="58" x="553" y="397.8125"/><rect fill="#FEFECE" height="10" style="stroke: #A80036; stroke-width: 3.0;" width="20" x="543" y="407.8125"/><rect fill="#FEFECE" height="10" style="stroke: #A80036; stroke-width: 3.0;" width="20" x="543" y="450.4063"/><text fill="#000000" font-family="sans-serif" font-size="28" lengthAdjust="spacingAndGlyphs" textLength="18" x="573" y="443.8027">0</text><!--MD5=[65527af159823a8c62521ea8432febf9]
entity 1s--><rect fill="#FEFECE" filter="url(#f1kbdp1lnky42h)" height="72.5938" style="stroke: #A80036; stroke-width: 3.0;" width="74" x="681" y="397.8125"/><rect fill="#FEFECE" height="10" style="stroke: #A80036; stroke-width: 3.0;" width="20" x="671" y="407.8125"/><rect fill="#FEFECE" height="10" style="stroke: #A80036; stroke-width: 3.0;" width="20" x="671" y="450.4063"/><text fill="#000000" font-family="sans-serif" font-size="28" lengthAdjust="spacingAndGlyphs" textLength="34" x="701" y="443.8027">1s</text><!--MD5=[b73a149e02d616b0b73127b4fd0e5544]
entity constant--><rect fill="#FEFECE" filter="url(#f1kbdp1lnky42h)" height="72.5938" style="stroke: #A80036; stroke-width: 3.0;" width="162" x="825" y="397.8125"/><rect fill="#FEFECE" height="10" style="stroke: #A80036; stroke-width: 3.0;" width="20" x="815" y="407.8125"/><rect fill="#FEFECE" height="10" style="stroke: #A80036; stroke-width: 3.0;" width="20" x="815" y="450.4063"/><text fill="#000000" font-family="sans-serif" font-size="28" lengthAdjust="spacingAndGlyphs" textLength="122" x="845" y="443.8027">constant</text><!--MD5=[691a1726be306d84324876b17512fe90]
entity system--><rect fill="#FEFECE" filter="url(#f1kbdp1lnky42h)" height="72.5938" style="stroke: #A80036; stroke-width: 3.0;" width="140" x="1058" y="397.8125"/><rect fill="#FEFECE" height="10" style="stroke: #A80036; stroke-width: 3.0;" width="20" x="1048" y="407.8125"/><rect fill="#FEFECE" height="10" style="stroke: #A80036; stroke-width: 3.0;" width="20" x="1048" y="450.4063"/><text fill="#000000" font-family="sans-serif" font-size="28" lengthAdjust="spacingAndGlyphs" textLength="100" x="1078" y="443.8027">system</text><!--MD5=[703039f732e47245c8d7e5242435b9e3]
entity polyMesh--><rect fill="#FEFECE" filter="url(#f1kbdp1lnky42h)" height="72.5938" style="stroke: #A80036; stroke-width: 3.0;" width="172" x="716" y="637.8125"/><text fill="#000000" font-family="sans-serif" font-size="28" lengthAdjust="spacingAndGlyphs" textLength="132" x="736" y="683.8027">polyMesh</text><!--MD5=[ee0fec323975fbe97ba28321ad4c4bf3]
entity U--><rect fill="#FEFECE" filter="url(#f1kbdp1lnky42h)" height="72.5938" style="stroke: #A80036; stroke-width: 3.0;" width="180" x="76" y="877.8125"/><text fill="#000000" font-family="sans-serif" font-size="28" lengthAdjust="spacingAndGlyphs" textLength="140" x="96" y="923.8027">U: velocity</text><!--MD5=[be5750da26e06623bc49653cefaf97c7]
entity p--><rect fill="#FEFECE" filter="url(#f1kbdp1lnky42h)" height="72.5938" style="stroke: #A80036; stroke-width: 3.0;" width="200" x="326" y="877.8125"/><text fill="#000000" font-family="sans-serif" font-size="28" lengthAdjust="spacingAndGlyphs" textLength="160" x="346" y="923.8027">p: pressure</text><!--MD5=[6bde22ee59d6cb44feb67e4dbdbe1c35]
entity meshFiles--><rect fill="#FEFECE" filter="url(#f1kbdp1lnky42h)" height="72.5938" style="stroke: #A80036; stroke-width: 3.0;" width="180" x="596" y="877.8125"/><text fill="#000000" font-family="sans-serif" font-size="28" lengthAdjust="spacingAndGlyphs" textLength="140" x="616" y="923.8027">meshFiles</text><!--MD5=[014b8e7ea78f543f87b58f41e2c91f59]
entity transportProperties--><rect fill="#FEFECE" filter="url(#f1kbdp1lnky42h)" height="72.5938" style="stroke: #A80036; stroke-width: 3.0;" width="308" x="846" y="877.8125"/><text fill="#000000" font-family="sans-serif" font-size="28" lengthAdjust="spacingAndGlyphs" textLength="268" x="866" y="923.8027">transportProperties</text><!--MD5=[3ccd48a3b85ab9a1910d45a7540d5f45]
entity turbulenceProperties--><rect fill="#FEFECE" filter="url(#f1kbdp1lnky42h)" height="72.5938" style="stroke: #A80036; stroke-width: 3.0;" width="332" x="1224" y="877.8125"/><text fill="#000000" font-family="sans-serif" font-size="28" lengthAdjust="spacingAndGlyphs" textLength="292" x="1244" y="923.8027">turbulenceProperties</text><!--MD5=[68a97ead78e74586de92047ea53ffa24]
entity fvSchemes--><rect fill="#FEFECE" filter="url(#f1kbdp1lnky42h)" height="72.5938" style="stroke: #A80036; stroke-width: 3.0;" width="192" x="1888" y="877.8125"/><text fill="#000000" font-family="sans-serif" font-size="28" lengthAdjust="spacingAndGlyphs" textLength="152" x="1908" y="923.8027">fvSchemes</text><!--MD5=[7caf85e5bada85bce19f85424a6cff0a]
entity fvSolution--><rect fill="#FEFECE" filter="url(#f1kbdp1lnky42h)" height="72.5938" style="stroke: #A80036; stroke-width: 3.0;" width="174" x="2151" y="877.8125"/><text fill="#000000" font-family="sans-serif" font-size="28" lengthAdjust="spacingAndGlyphs" textLength="134" x="2171" y="923.8027">fvSolution</text><!--MD5=[e842eaca665553312793a4b199fd28b8]
entity controlDict--><rect fill="#FEFECE" filter="url(#f1kbdp1lnky42h)" height="72.5938" style="stroke: #A80036; stroke-width: 3.0;" width="190" x="1627" y="877.8125"/><text fill="#000000" font-family="sans-serif" font-size="28" lengthAdjust="spacingAndGlyphs" textLength="150" x="1647" y="923.8027">controlDict</text><!--MD5=[108fea0a9871582fda5f03b2d0c32000]
entity Field_Data--><rect fill="#FEFECE" filter="url(#f1kbdp1lnky42h)" height="105.1875" style="stroke: #A80036; stroke-width: 3.0;" width="234" x="261" y="1182.8125"/><text fill="#000000" font-family="sans-serif" font-size="28" lengthAdjust="spacingAndGlyphs" textLength="166" x="281" y="1228.8027">internalField</text><text fill="#000000" font-family="sans-serif" font-size="28" lengthAdjust="spacingAndGlyphs" textLength="194" x="281" y="1261.3965">boundaryField</text><!--MD5=[475ca92e67df70162b94d097649dd0f3]
entity Mesh_Data--><rect fill="#FEFECE" filter="url(#f1kbdp1lnky42h)" height="235.5625" style="stroke: #A80036; stroke-width: 3.0;" width="242" x="565" y="1117.8125"/><text fill="#000000" font-family="sans-serif" font-size="28" lengthAdjust="spacingAndGlyphs" textLength="94" x="585" y="1163.8027">points,</text><text fill="#000000" font-family="sans-serif" font-size="28" lengthAdjust="spacingAndGlyphs" textLength="96" x="585" y="1196.3965">edges,</text><text fill="#000000" font-family="sans-serif" font-size="28" lengthAdjust="spacingAndGlyphs" textLength="138" x="585" y="1228.9902">boundary,</text><text fill="#000000" font-family="sans-serif" font-size="28" lengthAdjust="spacingAndGlyphs" textLength="82" x="585" y="1261.584">faces,</text><text fill="#000000" font-family="sans-serif" font-size="28" lengthAdjust="spacingAndGlyphs" textLength="94" x="585" y="1294.1777">owner,</text><text fill="#000000" font-family="sans-serif" font-size="28" lengthAdjust="spacingAndGlyphs" textLength="202" x="585" y="1326.7715">neighbour etc.</text><!--MD5=[f4d7d33dbd69b4341ec90a961563247b]
entity transportProperties_Data--><rect fill="#FEFECE" filter="url(#f1kbdp1lnky42h)" height="72.5938" style="stroke: #A80036; stroke-width: 3.0;" width="246" x="877" y="1199.8125"/><text fill="#000000" font-family="sans-serif" font-size="28" lengthAdjust="spacingAndGlyphs" textLength="206" x="897" y="1245.8027">fluid properties</text><!--MD5=[1faf2d99efb7ee5df84d8735a6be6a6e]
entity turbulenceProperties_Data--><rect fill="#FEFECE" filter="url(#f1kbdp1lnky42h)" height="105.1875" style="stroke: #A80036; stroke-width: 3.0;" width="300" x="1194" y="1182.8125"/><text fill="#000000" font-family="sans-serif" font-size="28" lengthAdjust="spacingAndGlyphs" textLength="216" x="1214" y="1228.8027">simulationType,</text><text fill="#000000" font-family="sans-serif" font-size="28" lengthAdjust="spacingAndGlyphs" textLength="260" x="1214" y="1261.3965">turbulence models</text><!--MD5=[b2c37b2fd50d0cdc2692ea1ca8a0c7e3]
entity fvSchemes_Data--><rect fill="#FEFECE" filter="url(#f1kbdp1lnky42h)" height="105.1875" style="stroke: #A80036; stroke-width: 3.0;" width="360" x="1902" y="1182.8125"/><text fill="#000000" font-family="sans-serif" font-size="28" lengthAdjust="spacingAndGlyphs" textLength="320" x="1922" y="1228.8027">discretization schemes</text><text fill="#000000" font-family="sans-serif" font-size="28" lengthAdjust="spacingAndGlyphs" textLength="272" x="1922" y="1261.3965">for finite vol method</text><!--MD5=[4d94df96df2743e9576fa0c13fb333e2]
entity fvSolution_Data--><rect fill="#FEFECE" filter="url(#f1kbdp1lnky42h)" height="105.1875" style="stroke: #A80036; stroke-width: 3.0;" width="338" x="2333" y="1182.8125"/><text fill="#000000" font-family="sans-serif" font-size="28" lengthAdjust="spacingAndGlyphs" textLength="298" x="2353" y="1228.8027">discretized equations</text><text fill="#000000" font-family="sans-serif" font-size="28" lengthAdjust="spacingAndGlyphs" textLength="242" x="2353" y="1261.3965">solution methods</text><!--MD5=[e075cf2d5d865519fb3f45e77b28ceee]
entity controlDict_Data--><rect fill="#FEFECE" filter="url(#f1kbdp1lnky42h)" height="105.1875" style="stroke: #A80036; stroke-width: 3.0;" width="266" x="1565" y="1182.8125"/><text fill="#000000" font-family="sans-serif" font-size="28" lengthAdjust="spacingAndGlyphs" textLength="176" x="1585" y="1228.8027">how solution</text><text fill="#000000" font-family="sans-serif" font-size="28" lengthAdjust="spacingAndGlyphs" textLength="226" x="1585" y="1261.3965">should progress</text><!--MD5=[f46b5df74245a08d3fe16ea9b7b0bde5]
entity Field_Meta--><rect fill="#FEFECE" filter="url(#f1kbdp1lnky42h)" height="170.375" style="stroke: #A80036; stroke-width: 3.0;" width="150" x="669" y="1554.8125"/><text fill="#000000" font-family="sans-serif" font-size="28" lengthAdjust="spacingAndGlyphs" textLength="60" x="689" y="1600.8027">type</text><text fill="#000000" font-family="sans-serif" font-size="28" lengthAdjust="spacingAndGlyphs" textLength="72" x="689" y="1633.3965">value</text><text fill="#000000" font-family="sans-serif" font-size="28" lengthAdjust="spacingAndGlyphs" textLength="110" x="689" y="1665.9902">quantity</text><text fill="#000000" font-family="sans-serif" font-size="28" lengthAdjust="spacingAndGlyphs" textLength="68" x="689" y="1698.584">units</text><!--MD5=[1387cfd667b229b8e64b3b72dfae1068]
entity transportProperties_Meta--><rect fill="#FEFECE" filter="url(#f1kbdp1lnky42h)" height="105.1875" style="stroke: #A80036; stroke-width: 3.0;" width="258" x="889" y="1586.8125"/><text fill="#000000" font-family="sans-serif" font-size="28" lengthAdjust="spacingAndGlyphs" textLength="218" x="909" y="1632.8027">transportModel,</text><text fill="#000000" font-family="sans-serif" font-size="28" lengthAdjust="spacingAndGlyphs" textLength="196" x="909" y="1665.3965">nu, rho, sigma</text><!--MD5=[5b89a4a73f5bcfecd829684806ce1c61]
entity turbulenceProperties_Meta--><rect fill="#FEFECE" filter="url(#f1kbdp1lnky42h)" height="105.1875" style="stroke: #A80036; stroke-width: 3.0;" width="300" x="1218" y="1586.8125"/><text fill="#000000" font-family="sans-serif" font-size="28" lengthAdjust="spacingAndGlyphs" textLength="216" x="1238" y="1632.8027">simulationType,</text><text fill="#000000" font-family="sans-serif" font-size="28" lengthAdjust="spacingAndGlyphs" textLength="260" x="1238" y="1665.3965">turbulence models</text><!--MD5=[03e8712129b5e4aa3a5ed232cdbc485f]
entity fvSchemes_Meta--><rect fill="#FEFECE" filter="url(#f1kbdp1lnky42h)" height="235.5625" style="stroke: #A80036; stroke-width: 3.0;" width="342" x="1863" y="1521.8125"/><text fill="#000000" font-family="sans-serif" font-size="28" lengthAdjust="spacingAndGlyphs" textLength="176" x="1883" y="1567.8027">ddtSchemes</text><text fill="#000000" font-family="sans-serif" font-size="28" lengthAdjust="spacingAndGlyphs" textLength="192" x="1883" y="1600.3965">gradSchemes</text><text fill="#000000" font-family="sans-serif" font-size="28" lengthAdjust="spacingAndGlyphs" textLength="168" x="1883" y="1632.9902">divSchemes</text><text fill="#000000" font-family="sans-serif" font-size="28" lengthAdjust="spacingAndGlyphs" textLength="248" x="1883" y="1665.584">laplacianSchemes</text><text fill="#000000" font-family="sans-serif" font-size="28" lengthAdjust="spacingAndGlyphs" textLength="302" x="1883" y="1698.1777">interpolationSchemes</text><text fill="#000000" font-family="sans-serif" font-size="28" lengthAdjust="spacingAndGlyphs" textLength="230" x="1883" y="1730.7715">snGradSchemes</text><!--MD5=[181c39ea5656a4d8173ac1beef321bd7]
entity fvSolution_Meta--><rect fill="#FEFECE" filter="url(#f1kbdp1lnky42h)" height="105.1875" style="stroke: #A80036; stroke-width: 3.0;" width="356" x="2276" y="1586.8125"/><text fill="#000000" font-family="sans-serif" font-size="28" lengthAdjust="spacingAndGlyphs" textLength="98" x="2296" y="1632.8027">solvers</text><text fill="#000000" font-family="sans-serif" font-size="28" lengthAdjust="spacingAndGlyphs" textLength="316" x="2296" y="1665.3965">associated parameters</text><!--MD5=[3e5498cbdc67feb0cf9a41fe8cd2eac8]
entity controlDict_Meta--><rect fill="#FEFECE" filter="url(#f1kbdp1lnky42h)" height="170.375" style="stroke: #A80036; stroke-width: 3.0;" width="204" x="1588" y="1554.8125"/><text fill="#000000" font-family="sans-serif" font-size="28" lengthAdjust="spacingAndGlyphs" textLength="86" x="1608" y="1600.8027">deltaT</text><text fill="#000000" font-family="sans-serif" font-size="28" lengthAdjust="spacingAndGlyphs" textLength="122" x="1608" y="1633.3965">endTime</text><text fill="#000000" font-family="sans-serif" font-size="28" lengthAdjust="spacingAndGlyphs" textLength="164" x="1608" y="1665.9902">writeInterval</text><text fill="#000000" font-family="sans-serif" font-size="28" lengthAdjust="spacingAndGlyphs" textLength="152" x="1608" y="1698.584">purgeWrite</text><!--MD5=[58c8e86375ab18a89a40a8d71b266c2f]
entity Field_Sample--><rect fill="#FEFECE" filter="url(#f1kbdp1lnky42h)" height="105.1875" style="stroke: #A80036; stroke-width: 3.0;" width="180" x="636" y="1990.8125"/><text fill="#000000" font-family="sans-serif" font-size="28" lengthAdjust="spacingAndGlyphs" textLength="104" x="656" y="2036.8027">uniform</text><text fill="#000000" font-family="sans-serif" font-size="28" lengthAdjust="spacingAndGlyphs" textLength="140" x="656" y="2069.3965">fixedValue</text><!--MD5=[398f9a58d83b4bbb2359b71a6ff45770]
entity transportProperties_Sample--><rect fill="#FEFECE" filter="url(#f1kbdp1lnky42h)" height="137.7813" style="stroke: #A80036; stroke-width: 3.0;" width="360" x="886" y="1974.8125"/><text fill="#000000" font-family="sans-serif" font-size="28" lengthAdjust="spacingAndGlyphs" textLength="146" x="906" y="2020.8027">Newtonian</text><text fill="#000000" font-family="sans-serif" font-size="28" lengthAdjust="spacingAndGlyphs" textLength="198" x="906" y="2053.3965">powerLaw etc,</text><text fill="#000000" font-family="sans-serif" font-size="28" lengthAdjust="spacingAndGlyphs" textLength="320" x="906" y="2085.9902">property units &amp; values</text><!--MD5=[eb00b6f6cf3108bf9e57a0772775bfca]
entity turbulenceProperties_Sample--><rect fill="#FEFECE" filter="url(#f1kbdp1lnky42h)" height="137.7813" style="stroke: #A80036; stroke-width: 3.0;" width="294" x="1317" y="1974.8125"/><text fill="#000000" font-family="sans-serif" font-size="28" lengthAdjust="spacingAndGlyphs" textLength="154" x="1337" y="2020.8027">laminar (or)</text><text fill="#000000" font-family="sans-serif" font-size="28" lengthAdjust="spacingAndGlyphs" textLength="254" x="1337" y="2053.3965">turbulence model:</text><text fill="#000000" font-family="sans-serif" font-size="28" lengthAdjust="spacingAndGlyphs" textLength="230" x="1337" y="2085.9902">RAS (or) LES etc.</text><!--MD5=[2f9f87c6f7dbfde1f565d9f968e419b7]
entity documentation--><rect fill="#FEFECE" filter="url(#f1kbdp1lnky42h)" height="72.5938" style="stroke: #A80036; stroke-width: 3.0;" width="430" x="1681" y="2007.8125"/><text fill="#000000" font-family="sans-serif" font-size="28" lengthAdjust="spacingAndGlyphs" textLength="390" x="1701" y="2053.8027">see tutorials/documentation</text><!--MD5=[e2823913da43e7c11d139ba843506b03]
entity fvSolution_Sample--><rect fill="#FEFECE" filter="url(#f1kbdp1lnky42h)" height="235.5625" style="stroke: #A80036; stroke-width: 3.0;" width="414" x="2181" y="1925.8125"/><text fill="#000000" font-family="sans-serif" font-size="28" lengthAdjust="spacingAndGlyphs" textLength="108" x="2201" y="1971.8027">PIMPLE:</text><text fill="#000000" font-family="sans-serif" font-size="28" lengthAdjust="spacingAndGlyphs" textLength="374" x="2201" y="2004.3965">nNonOrthogonalCorrectors</text><text fill="#000000" font-family="sans-serif" font-size="28" lengthAdjust="spacingAndGlyphs" textLength="164" x="2201" y="2036.9902">nCorrectors</text><text fill="#000000" font-family="sans-serif" font-size="28" lengthAdjust="spacingAndGlyphs" textLength="242" x="2201" y="2069.584">nOuterCorrectors</text><text fill="#000000" font-family="sans-serif" font-size="28" lengthAdjust="spacingAndGlyphs" textLength="114" x="2201" y="2102.1777">pRefCell</text><text fill="#000000" font-family="sans-serif" font-size="28" lengthAdjust="spacingAndGlyphs" textLength="140" x="2201" y="2134.7715">pRefValue</text><!--MD5=[0783ce2f584863f4a10772b2b3a8c482]
entity CaseStudy--><rect fill="#FEFECE" filter="url(#f1kbdp1lnky42h)" height="72.5938" style="stroke: #A80036; stroke-width: 3.0;" width="196" x="714" y="129.8125"/><rect fill="#FEFECE" height="10" style="stroke: #A80036; stroke-width: 3.0;" width="20" x="704" y="139.8125"/><rect fill="#FEFECE" height="10" style="stroke: #A80036; stroke-width: 3.0;" width="20" x="704" y="182.4063"/><text fill="#000000" font-family="sans-serif" font-size="28" lengthAdjust="spacingAndGlyphs" textLength="156" x="734" y="175.8027">Case Study</text><!--MD5=[421f21339c200c5c3bb833d30f5e77f4]
link CaseStudy to 0--><path d="M713.8,170.3325 C573.74,176.2525 327.36,195.9925 272,261.8125 C190.42,358.8125 442.1,409.9325 542.52,426.0725 " fill="none" id="CaseStudy-&gt;0" style="stroke: #A80036; stroke-width: 2.0;"/><polygon fill="#A80036" points="552.88,427.7125,536.3289,417.0325,542.9996,426.1705,533.8617,432.8412,552.88,427.7125" style="stroke: #A80036; stroke-width: 2.0;"/><text fill="#000000" font-family="sans-serif" font-size="26" lengthAdjust="spacingAndGlyphs" textLength="362" x="274" y="287.9463">initial &amp; boundary conditions</text><!--MD5=[f93e995fc8f20351f13d2e412b19873d]
link CaseStudy to 1s--><path d="M727.32,202.0525 C702.4,216.5725 678.08,236.2125 664,261.8125 C641.72,302.3525 663.82,353.4325 686.1,388.9725 " fill="none" id="CaseStudy-&gt;1s" style="stroke: #A80036; stroke-width: 2.0;"/><polygon fill="#A80036" points="691.74,397.6725,688.6121,378.2247,686.2791,389.2953,675.2085,386.9622,691.74,397.6725" style="stroke: #A80036; stroke-width: 2.0;"/><text fill="#000000" font-family="sans-serif" font-size="26" lengthAdjust="spacingAndGlyphs" textLength="200" x="666" y="287.9463">time directories</text><!--MD5=[0d0c96bad86ad2fa8f1d75abb744d530]
link CaseStudy to constant--><path d="M840.74,202.3725 C853.42,219.3125 867.38,240.5925 876,261.8125 C892.48,302.3125 899.92,351.8725 903.26,387.0125 " fill="none" id="CaseStudy-&gt;constant" style="stroke: #A80036; stroke-width: 2.0;"/><polygon fill="#A80036" points="904.18,397.4125,910.556,378.7753,903.2952,387.4517,894.6188,380.1909,904.18,397.4125" style="stroke: #A80036; stroke-width: 2.0;"/><text fill="#000000" font-family="sans-serif" font-size="26" lengthAdjust="spacingAndGlyphs" textLength="350" x="888" y="287.9463">mesh &amp; physical properties</text><!--MD5=[0408616048602ba1fc0e5ed87ffbab38]
link CaseStudy to system--><path d="M910.26,174.5325 C1027.58,184.8325 1213.34,209.1725 1256,261.8125 C1291.18,305.2325 1240.12,356.6725 1192.42,391.5125 " fill="none" id="CaseStudy-&gt;system" style="stroke: #A80036; stroke-width: 2.0;"/><polygon fill="#A80036" points="1184.2,397.3925,1203.4932,393.4209,1192.3315,391.572,1194.1804,380.4104,1184.2,397.3925" style="stroke: #A80036; stroke-width: 2.0;"/><text fill="#000000" font-family="sans-serif" font-size="26" lengthAdjust="spacingAndGlyphs" textLength="360" x="1268" y="287.9463">control &amp; solver parameters</text><!--MD5=[4b156d635b87a9439f79d7f906b66b83]
link constant to polyMesh--><path d="M890.88,470.1325 C872.46,511.8925 841.36,582.4925 821.26,628.1125 " fill="none" id="constant-&gt;polyMesh" style="stroke: #A80036; stroke-width: 2.0;"/><polygon fill="#A80036" points="817.14,637.4525,831.7188,624.2064,821.1722,628.3015,817.0771,617.7549,817.14,637.4525" style="stroke: #A80036; stroke-width: 2.0;"/><!--MD5=[0704f5225b2493080485c1107726e9fb]
link 0 to U--><path d="M552.36,444.6725 C505.82,459.8925 415.06,494.9125 358,551.8125 C264.52,644.9925 205.4,793.2525 180.16,867.0525 " fill="none" id="0-&gt;U" style="stroke: #A80036; stroke-width: 2.0;"/><polygon fill="#A80036" points="176.66,877.3725,189.9547,862.838,179.8308,867.8885,174.7803,857.7647,176.66,877.3725" style="stroke: #A80036; stroke-width: 2.0;"/><!--MD5=[ad1b92c5dc84e9aacc61fad7084876bd]
link 0 to p--><path d="M552.74,442.5325 C511.9,453.6725 439.32,480.2325 408,533.8125 C345.82,640.2125 384.42,793.6325 409.5,868.0325 " fill="none" id="0-&gt;p" style="stroke: #A80036; stroke-width: 2.0;"/><polygon fill="#A80036" points="412.78,877.5725,414.4825,857.9485,409.5236,868.1176,399.3546,863.1587,412.78,877.5725" style="stroke: #A80036; stroke-width: 2.0;"/><!--MD5=[f44567396cd4c65ca0f3e05076b4c492]
link 1s to U--><path d="M695.7,469.8325 C683.04,486.6325 665.76,505.8125 646,517.8125 C592.02,550.6125 561.28,517.8925 508,551.8125 C408.82,614.9725 428.44,678.1125 342,757.8125 C322.24,776.0325 312.92,774.9325 292,791.8125 C261.76,816.2325 230.08,846.4125 206.04,870.4125 " fill="none" id="1s-&gt;U" style="stroke: #A80036; stroke-width: 2.0;"/><polygon fill="#A80036" points="198.84,877.6525,217.2105,870.5443,205.8968,870.5672,205.8739,859.2535,198.84,877.6525" style="stroke: #A80036; stroke-width: 2.0;"/><!--MD5=[b28d20161ba569492f311c9b185eef04]
link 1s to p--><path d="M697.16,470.6925 C660.22,532.4325 580.66,664.8925 512,775.8125 C492.72,806.9725 470.62,841.9125 453.64,868.5725 " fill="none" id="1s-&gt;p" style="stroke: #A80036; stroke-width: 2.0;"/><polygon fill="#A80036" points="448.1,877.2725,464.5202,866.3924,453.4743,868.8394,451.0273,857.7935,448.1,877.2725" style="stroke: #A80036; stroke-width: 2.0;"/><!--MD5=[0af8390a761515b966115a31943e3955]
link polyMesh to meshFiles--><path d="M785.14,710.1325 C764.6,751.8925 729.9,822.4925 707.48,868.1125 " fill="none" id="polyMesh-&gt;meshFiles" style="stroke: #A80036; stroke-width: 2.0;"/><polygon fill="#A80036" points="702.88,877.4525,718.0211,864.853,707.3064,868.4855,703.6739,857.7708,702.88,877.4525" style="stroke: #A80036; stroke-width: 2.0;"/><!--MD5=[f42bbea1dd903449056c25b72aaa4a74]
link constant to transportProperties--><path d="M912.76,470.0525 C929.42,554.4125 972.44,772.2925 991.12,866.8725 " fill="none" id="constant-&gt;transportProperties" style="stroke: #A80036; stroke-width: 2.0;"/><polygon fill="#A80036" points="993.18,877.2525,997.5375,858.0428,991.2408,867.4423,981.8413,861.1456,993.18,877.2525" style="stroke: #A80036; stroke-width: 2.0;"/><!--MD5=[f961d1db0686d9f5e1495705dcfd3c9c]
link constant to turbulenceProperties--><path d="M940.8,470.0525 C1027.46,555.2525 1252.64,776.7125 1347.2,869.7125 " fill="none" id="constant-&gt;turbulenceProperties" style="stroke: #A80036; stroke-width: 2.0;"/><polygon fill="#A80036" points="1354.86,877.2525,1347.6403,858.9256,1347.7319,870.2389,1336.4186,870.3305,1354.86,877.2525" style="stroke: #A80036; stroke-width: 2.0;"/><!--MD5=[d7cbdf7fddc75a04c52b400fd44eebf8]
link system to fvSchemes--><path d="M1198.66,454.5325 C1269.16,474.3925 1379.7,508.8525 1470,551.8125 C1651.06,637.9325 1692.3,670.5725 1852,791.8125 C1883.74,815.9125 1916.92,846.1125 1942.08,870.1725 " fill="none" id="system-&gt;fvSchemes" style="stroke: #A80036; stroke-width: 2.0;"/><polygon fill="#A80036" points="1949.62,877.4325,1942.1783,859.1946,1942.4073,870.506,1931.0959,870.735,1949.62,877.4325" style="stroke: #A80036; stroke-width: 2.0;"/><!--MD5=[3070a0d3aeccc33bf8381f8fc067ca3f]
link system to fvSolution--><path d="M1198,443.3125 C1305.94,456.4325 1518.26,488.3725 1688,551.8125 C1892.28,628.1525 1941.6,660.8525 2116,791.8125 C2147,815.0925 2178.1,845.8125 2201.14,870.3525 " fill="none" id="system-&gt;fvSolution" style="stroke: #A80036; stroke-width: 2.0;"/><polygon fill="#A80036" points="2208.02,877.7525,2201.6593,859.11,2201.2254,870.4154,2189.92,869.9815,2208.02,877.7525" style="stroke: #A80036; stroke-width: 2.0;"/><!--MD5=[e64cfdbda9a8e84e0209c8c4ba0a187a]
link system to controlDict--><path d="M1175.2,469.8125 C1260.32,531.6325 1444.44,667.5525 1592,791.8125 C1622.02,817.0925 1654.46,847.0325 1679.42,870.6925 " fill="none" id="system-&gt;controlDict" style="stroke: #A80036; stroke-width: 2.0;"/><polygon fill="#A80036" points="1686.92,877.8125,1679.4046,859.6049,1679.6793,870.9152,1668.3689,871.19,1686.92,877.8125" style="stroke: #A80036; stroke-width: 2.0;"/><!--MD5=[06b4b93a75169a16be9f75646bd4b303]
link U to Field_Data--><path d="M188.68,949.8525 C224.36,1003.3525 294.06,1107.8925 338.2,1174.1125 " fill="none" id="U-&gt;Field_Data" style="stroke: #A80036; stroke-width: 2.0;"/><polygon fill="#A80036" points="343.98,1182.7925,340.6518,1163.378,338.433,1174.472,327.339,1172.2532,343.98,1182.7925" style="stroke: #A80036; stroke-width: 2.0;"/><!--MD5=[783acf09d6726fabd5b59393156e851c]
link p to Field_Data--><path d="M420.86,949.8525 C412.86,1002.9325 397.26,1106.1925 387.26,1172.4925 " fill="none" id="p-&gt;Field_Data" style="stroke: #A80036; stroke-width: 2.0;"/><polygon fill="#A80036" points="385.7,1182.7925,396.2863,1166.1814,387.1862,1172.9036,380.464,1163.8034,385.7,1182.7925" style="stroke: #A80036; stroke-width: 2.0;"/><!--MD5=[65d7a546e0257066ddd139f44b8affe1]
link meshFiles to Mesh_Data--><path d="M686,949.8525 C686,987.3925 686,1050.0925 686,1107.0325 " fill="none" id="meshFiles-&gt;Mesh_Data" style="stroke: #A80036; stroke-width: 2.0;"/><polygon fill="#A80036" points="686,1117.5925,694,1099.5925,686,1107.5925,678,1099.5925,686,1117.5925" style="stroke: #A80036; stroke-width: 2.0;"/><!--MD5=[4c69082013152aeeee87371288063d6d]
link transportProperties to transportProperties_Data--><path d="M1000,949.8525 C1000,1007.3925 1000,1123.9725 1000,1188.4125 " fill="none" id="transportProperties-&gt;transportProperties_Data" style="stroke: #A80036; stroke-width: 2.0;"/><polygon fill="#A80036" points="1000,1199.0525,1008,1181.0525,1000,1189.0525,992,1181.0525,1000,1199.0525" style="stroke: #A80036; stroke-width: 2.0;"/><!--MD5=[60e5506c3ff3febb9e1388c5b6b5093a]
link turbulenceProperties to turbulenceProperties_Data--><path d="M1385.08,949.8525 C1377.4,1002.9325 1362.46,1106.1925 1352.88,1172.4925 " fill="none" id="turbulenceProperties-&gt;turbulenceProperties_Data" style="stroke: #A80036; stroke-width: 2.0;"/><polygon fill="#A80036" points="1351.38,1182.7925,1361.8654,1166.1175,1352.8062,1172.8947,1346.0289,1163.8355,1351.38,1182.7925" style="stroke: #A80036; stroke-width: 2.0;"/><!--MD5=[1fe86d7e25914f03d60ad619c1f8cbd0]
link fvSchemes to fvSchemes_Data--><path d="M1994.48,949.8525 C2010.84,1002.9325 2042.68,1106.1925 2063.1,1172.4925 " fill="none" id="fvSchemes-&gt;fvSchemes_Data" style="stroke: #A80036; stroke-width: 2.0;"/><polygon fill="#A80036" points="2066.28,1182.7925,2068.6368,1163.2363,2063.3411,1173.2341,2053.3433,1167.9385,2066.28,1182.7925" style="stroke: #A80036; stroke-width: 2.0;"/><!--MD5=[f9f33ad35735121145ba0d1fefa4380e]
link fvSolution to fvSolution_Data--><path d="M2266.26,949.8525 C2310.86,1003.5725 2398.18,1108.7525 2453.12,1174.9325 " fill="none" id="fvSolution-&gt;fvSolution_Data" style="stroke: #A80036; stroke-width: 2.0;"/><polygon fill="#A80036" points="2459.64,1182.7925,2454.3456,1163.8196,2453.2719,1175.0823,2442.0093,1174.0086,2459.64,1182.7925" style="stroke: #A80036; stroke-width: 2.0;"/><!--MD5=[d488e26c03a4f90b870c6facf6db3a8e]
link controlDict to controlDict_Data--><path d="M1719.44,949.8525 C1715.42,1002.9325 1707.64,1106.1925 1702.62,1172.4925 " fill="none" id="controlDict-&gt;controlDict_Data" style="stroke: #A80036; stroke-width: 2.0;"/><polygon fill="#A80036" points="1701.86,1182.7925,1711.2246,1165.4632,1702.6313,1172.8223,1695.2722,1164.2291,1701.86,1182.7925" style="stroke: #A80036; stroke-width: 2.0;"/><!--MD5=[f53902f510732b05ac12bc4422f043b0]
link Field_Data to Field_Meta--><path d="M425.1,1289.2925 C484.76,1354.4925 588.58,1467.9525 661.52,1547.6725 " fill="none" id="Field_Data-&gt;Field_Meta" style="stroke: #A80036; stroke-width: 2.0;"/><polygon fill="#A80036" points="668.48,1555.2725,662.2339,1536.5913,661.7305,1547.8938,650.428,1547.3905,668.48,1555.2725" style="stroke: #A80036; stroke-width: 2.0;"/><!--MD5=[67da7bc255b4f66513848918249332f8]
link transportProperties_Data to transportProperties_Meta--><path d="M1001.54,1271.9125 C1004.58,1339.4525 1011.4,1491.0325 1015.24,1576.3925 " fill="none" id="transportProperties_Data-&gt;transportProperties_Meta" style="stroke: #A80036; stroke-width: 2.0;"/><polygon fill="#A80036" points="1015.68,1586.4725,1022.8497,1568.1259,1015.2233,1576.4829,1006.8663,1568.8566,1015.68,1586.4725" style="stroke: #A80036; stroke-width: 2.0;"/><!--MD5=[649853bc285fd72e7571ce574ea21690]
link turbulenceProperties_Data to turbulenceProperties_Meta--><path d="M1347.08,1289.2925 C1351.5,1362.7925 1359.58,1497.6125 1364.3,1576.2925 " fill="none" id="turbulenceProperties_Data-&gt;turbulenceProperties_Meta" style="stroke: #A80036; stroke-width: 2.0;"/><polygon fill="#A80036" points="1364.92,1586.5325,1371.8244,1568.0845,1364.3194,1576.5506,1355.8533,1569.0455,1364.92,1586.5325" style="stroke: #A80036; stroke-width: 2.0;"/><!--MD5=[e8bd24174f1c44d37e3c17b3f8a0ebca]
link fvSchemes_Data to fvSchemes_Meta--><path d="M2075.82,1289.2925 C2069.14,1345.0125 2058.22,1436.0125 2049.22,1511.0525 " fill="none" id="fvSchemes_Data-&gt;fvSchemes_Meta" style="stroke: #A80036; stroke-width: 2.0;"/><polygon fill="#A80036" points="2048.02,1521.0525,2058.0712,1504.1122,2049.1901,1511.1212,2042.1811,1502.2401,2048.02,1521.0525" style="stroke: #A80036; stroke-width: 2.0;"/><!--MD5=[e7b0a05ed23ed40dcd4c478cddb37dcf]
link fvSolution_Data to fvSolution_Meta--><path d="M2495.82,1289.2925 C2487,1362.7925 2470.82,1497.6125 2461.38,1576.2925 " fill="none" id="fvSolution_Data-&gt;fvSolution_Meta" style="stroke: #A80036; stroke-width: 2.0;"/><polygon fill="#A80036" points="2460.16,1586.5325,2470.2591,1569.6207,2461.3582,1576.6045,2454.3744,1567.7036,2460.16,1586.5325" style="stroke: #A80036; stroke-width: 2.0;"/><!--MD5=[dd168414d530faed07dd0a0a8b3f514e]
link controlDict_Data to controlDict_Meta--><path d="M1696.98,1289.2925 C1695.68,1353.4925 1693.46,1464.5125 1691.88,1544.0125 " fill="none" id="controlDict_Data-&gt;controlDict_Meta" style="stroke: #A80036; stroke-width: 2.0;"/><polygon fill="#A80036" points="1691.66,1554.5125,1700.0183,1536.6761,1691.86,1544.5145,1684.0215,1536.3561,1691.66,1554.5125" style="stroke: #A80036; stroke-width: 2.0;"/><!--MD5=[3550bde00db27af786e05aedaf5355aa]
link Field_Meta to Field_Sample--><path d="M740.22,1725.6725 C736.82,1801.5525 731.86,1911.5925 728.78,1979.8125 " fill="none" id="Field_Meta-&gt;Field_Sample" style="stroke: #A80036; stroke-width: 2.0;"/><polygon fill="#A80036" points="728.32,1990.3925,737.1337,1972.7766,728.7767,1980.4029,721.1503,1972.0459,728.32,1990.3925" style="stroke: #A80036; stroke-width: 2.0;"/><!--MD5=[71ed8f57c9ca9c5ba806ab4e88f7ad93]
link transportProperties_Meta to transportProperties_Sample--><path d="M1024.18,1693.2925 C1032.42,1761.9525 1047.08,1884.1125 1056.66,1964.0325 " fill="none" id="transportProperties_Meta-&gt;transportProperties_Sample" style="stroke: #A80036; stroke-width: 2.0;"/><polygon fill="#A80036" points="1057.92,1974.5325,1063.7526,1955.7181,1056.7466,1964.6016,1047.8632,1957.5956,1057.92,1974.5325" style="stroke: #A80036; stroke-width: 2.0;"/><!--MD5=[1dd8ab5e463d1674de34e00b827147d8]
link turbulenceProperties_Meta to turbulenceProperties_Sample--><path d="M1380.36,1693.2925 C1396.84,1761.9525 1426.14,1884.1125 1445.34,1964.0325 " fill="none" id="turbulenceProperties_Meta-&gt;turbulenceProperties_Sample" style="stroke: #A80036; stroke-width: 2.0;"/><polygon fill="#A80036" points="1447.86,1974.5325,1451.4168,1955.1586,1445.5155,1964.8112,1435.8628,1958.9098,1447.86,1974.5325" style="stroke: #A80036; stroke-width: 2.0;"/><!--MD5=[a6b1b4c66f917e00a3f1920da0049128]
link fvSchemes_Meta to documentation--><path d="M1993.9,1758.0525 C1966.22,1838.2925 1930.96,1940.4925 1911.2,1997.7725 " fill="none" id="fvSchemes_Meta-&gt;documentation" style="stroke: #A80036; stroke-width: 2.0;"/><polygon fill="#A80036" points="1907.92,2007.2525,1921.3454,1992.8387,1911.1764,1997.7976,1906.2175,1987.6285,1907.92,2007.2525" style="stroke: #A80036; stroke-width: 2.0;"/><!--MD5=[c6e61aba4d508d708ba96f4c0115eb1e]
link fvSolution_Meta to fvSolution_Sample--><path d="M2445.5,1693.2925 C2436.32,1749.0125 2421.3,1840.0125 2408.92,1915.0525 " fill="none" id="fvSolution_Meta-&gt;fvSolution_Sample" style="stroke: #A80036; stroke-width: 2.0;"/><polygon fill="#A80036" points="2407.26,1925.0525,2418.0871,1908.5973,2408.8901,1915.1863,2402.3011,1905.9892,2407.26,1925.0525" style="stroke: #A80036; stroke-width: 2.0;"/><!--MD5=[489a891d021b420375893faffd64b584]
link controlDict_Meta to documentation--><path d="M1733.18,1725.6725 C1775.92,1808.6325 1839.66,1932.4325 1873.32,1997.7525 " fill="none" id="controlDict_Meta-&gt;documentation" style="stroke: #A80036; stroke-width: 2.0;"/><polygon fill="#A80036" points="1878.06,2006.9725,1876.9392,1987.3067,1873.4852,1998.0803,1862.7116,1994.6263,1878.06,2006.9725" style="stroke: #A80036; stroke-width: 2.0;"/><text fill="#888888" font-family="sans-serif" font-size="20" lengthAdjust="spacingAndGlyphs" textLength="770" x="1000" y="2264.377">credits: https://maplekeylabs.com/understanding-the-openfoam-case-structure/</text><text fill="#888888" font-family="sans-serif" font-size="20" lengthAdjust="spacingAndGlyphs" textLength="194" x="1288" y="2287.6582">2023.03.24 at 09:37</text><text fill="#888888" font-family="sans-serif" font-size="20" lengthAdjust="spacingAndGlyphs" textLength="314" x="1228" y="2310.9395">OpenFoam_case_structure.puml</text><!--MD5=[e5abdbfb30626f1fbcecb16e714e7d21]
@startuml OpenFoam_case_structure

scale 2
skinparam titleBorderRoundCorner 15
skinparam titleBorderThickness 2
skinparam titleBorderColor red
skinparam titleBackgroundColor Tomato

title OpenFoam | Case Structure \n Folders and Files

component "Case Study" as CaseStudy

package Directories {
component 0
component 1s
component constant
component system
}

CaseStudy - -> 0 : initial & boundary conditions
CaseStudy - -> 1s: time directories
CaseStudy - -> constant : mesh & physical properties
CaseStudy - -> system: control & solver parameters

package Subdirectories {
    agent polyMesh
}

constant - -> polyMesh

package Files {

    agent "U: velocity" as U
    agent "p: pressure" as p

    agent meshFiles
    agent transportProperties
    agent turbulenceProperties

    agent fvSchemes
    agent fvSolution
    agent controlDict
}

0 - -> U
0 - -> p

1s - -> U
1s - -> p

polyMesh - -> meshFiles
constant - -> transportProperties
constant - -> turbulenceProperties

system - -> fvSchemes
system - -> fvSolution
system - -> controlDict

package Dictionaries {

    agent "internalField \nboundaryField" as Field_Data

    agent "points, \nedges, \nboundary, \nfaces, \nowner, \nneighbour etc." as Mesh_Data
    agent "fluid properties" as transportProperties_Data
    agent "simulationType, \nturbulence models" as turbulenceProperties_Data

    agent "discretization schemes \nfor finite vol method" as fvSchemes_Data
    agent "discretized equations \nsolution methods" as fvSolution_Data
    agent "how solution \nshould progress" as controlDict_Data

}

U - -> Field_Data
p - -> Field_Data

meshFiles - -> Mesh_Data
transportProperties - -> transportProperties_Data
turbulenceProperties - -> turbulenceProperties_Data

fvSchemes - -> fvSchemes_Data
fvSolution - -> fvSolution_Data
controlDict - -> controlDict_Data


package "Meta Data" {

    agent "type  \nvalue \nquantity \nunits" as Field_Meta

    agent "transportModel, \nnu, rho, sigma" as transportProperties_Meta
    agent "simulationType, \nturbulence models" as turbulenceProperties_Meta

    agent "ddtSchemes \ngradSchemes \ndivSchemes \n laplacianSchemes \ninterpolationSchemes \nsnGradSchemes" as fvSchemes_Meta
    agent "solvers \n associated parameters" as fvSolution_Meta
    agent "deltaT \nendTime \nwriteInterval \npurgeWrite" as controlDict_Meta

}

Field_Data  - -> Field_Meta

transportProperties_Data  - -> transportProperties_Meta
turbulenceProperties_Data  - -> turbulenceProperties_Meta

fvSchemes_Data - -> fvSchemes_Meta
fvSolution_Data - -> fvSolution_Meta
controlDict_Data - -> controlDict_Meta


package "Sample Data" {

    agent "uniform \nfixedValue  " as Field_Sample

    agent "Newtonian \npowerLaw etc, \nproperty units & values " as transportProperties_Sample
    agent "laminar (or) \nturbulence model: \nRAS (or) LES etc." as turbulenceProperties_Sample


    agent "see tutorials/documentation" as documentation
    agent "PIMPLE: \nnNonOrthogonalCorrectors \nnCorrectors \nnOuterCorrectors \npRefCell \npRefValue" as fvSolution_Sample

}

Field_Meta  - -> Field_Sample

transportProperties_Meta  - -> transportProperties_Sample
turbulenceProperties_Meta  - -> turbulenceProperties_Sample


fvSchemes_Meta - -> documentation
fvSolution_Meta - -> fvSolution_Sample
controlDict_Meta - -> documentation

footer
credits: https://maplekeylabs.com/understanding-the-openfoam-case-structure/
2023.03.24 at 09:37
OpenFoam_case_structure.puml
end footer

@enduml

PlantUML version 1.2020.02(Sun Mar 01 04:22:07 CST 2020)
(GPL source distribution)
Java Runtime: OpenJDK Runtime Environment
JVM: OpenJDK 64-Bit Server VM
Java Version: 11.0.18+10-post-Ubuntu-0ubuntu122.04
Operating System: Linux
Default Encoding: UTF-8
Language: en
Country: US
--></g></svg>