<?xml version="1.0" encoding="UTF-8" standalone="no"?><svg xmlns="http://www.w3.org/2000/svg" xmlns:xlink="http://www.w3.org/1999/xlink" contentStyleType="text/css" height="1359px" preserveAspectRatio="none" style="width:595px;height:1359px;background:#FFFFFF;" version="1.1" viewBox="0 0 595 1359" width="595px" zoomAndPan="magnify"><defs/><g><rect fill="#FF6347" height="45.2188" id="_title" rx="7.5" ry="7.5" style="stroke:#FF0000;stroke-width:2.0;" width="161" x="215.75" y="15"/><text fill="#000000" font-family="sans-serif" font-size="14" font-weight="bold" lengthAdjust="spacing" textLength="147" x="220.75" y="34.5332">Engineering Analysis</text><text fill="#000000" font-family="sans-serif" font-size="14" font-weight="bold" lengthAdjust="spacing" textLength="117" x="239.75" y="52.1426">Typical Workflow</text><ellipse cx="143" cy="76.2188" fill="#222222" rx="10" ry="10" style="stroke:#222222;stroke-width:1.0;"/><rect fill="none" height="270.2656" style="stroke:#000000;stroke-width:1.5;" width="385" x="38.5" y="96.2188"/><path d="M239.5,96.2188 L239.5,106.8281 L229.5,116.8281 L38.5,116.8281 " fill="none" style="stroke:#000000;stroke-width:1.5;"/><text fill="#000000" font-family="sans-serif" font-size="14" lengthAdjust="spacing" textLength="191" x="41.5" y="111.752">Design Data and Methodology</text><path d="M247.5,198.9531 L247.5,274.3594 L403.5,274.3594 L403.5,208.9531 L393.5,198.9531 L247.5,198.9531 " fill="#FEFFDD" style="stroke:#181818;stroke-width:0.5;"/><path d="M393.5,198.9531 L393.5,208.9531 L403.5,208.9531 L393.5,198.9531 " fill="#FEFFDD" style="stroke:#181818;stroke-width:0.5;"/><text fill="#000000" font-family="sans-serif" font-size="13" lengthAdjust="spacing" textLength="81" x="253.5" y="217.4482">Markdown for:</text><text fill="#000000" font-family="sans-serif" font-size="13" lengthAdjust="spacing" textLength="74" x="257.5" y="233.7998">Maintenance</text><text fill="#000000" font-family="sans-serif" font-size="13" lengthAdjust="spacing" textLength="58" x="257.5" y="250.1514">Portability</text><text fill="#000000" font-family="sans-serif" font-size="13" lengthAdjust="spacing" textLength="131" x="257.5" y="266.5029">Add flowcharts in puml</text><rect fill="#F1F1F1" height="35.0938" rx="12.5" ry="12.5" style="stroke:#181818;stroke-width:0.5;" width="189" x="48.5" y="133.8281"/><text fill="#000000" font-family="sans-serif" font-size="12" lengthAdjust="spacing" textLength="169" x="58.5" y="156.2852">Standard design data template</text><rect fill="#F1F1F1" height="35.0938" rx="12.5" ry="12.5" style="stroke:#181818;stroke-width:0.5;" width="170" x="58" y="188.9219"/><text fill="#000000" font-family="sans-serif" font-size="12" lengthAdjust="spacing" textLength="150" x="68" y="211.3789">Data known is documented</text><rect fill="#F1F1F1" height="95.4688" rx="12.5" ry="12.5" style="stroke:#181818;stroke-width:0.5;" width="183" x="51.5" y="259.0156"/><text fill="#000000" font-family="sans-serif" font-size="12" lengthAdjust="spacing" textLength="82" x="61.5" y="281.4727">Data unknown:</text><text fill="#000000" font-family="sans-serif" font-size="12" lengthAdjust="spacing" textLength="151" x="73.5" y="296.5664">Fill in Generic assumptions</text><text fill="#000000" font-family="sans-serif" font-size="12" lengthAdjust="spacing" textLength="123" x="73.5" y="311.6602">Fill other assumptions</text><text fill="#000000" font-family="sans-serif" font-size="12" lengthAdjust="spacing" textLength="74" x="73.5" y="326.7539">Leave Blanks</text><text fill="#000000" font-family="sans-serif" font-size="12" lengthAdjust="spacing" textLength="90" x="73.5" y="341.8477">Use color codes</text><path d="M255,376.4844 L255,402.0117 L235,406.0117 L255,410.0117 L255,435.5391 A0,0 0 0 0 255,435.5391 L435,435.5391 A0,0 0 0 0 435,435.5391 L435,386.4844 L425,376.4844 L255,376.4844 A0,0 0 0 0 255,376.4844 " fill="#FEFFDD" style="stroke:#181818;stroke-width:0.5;"/><path d="M425,376.4844 L425,386.4844 L435,386.4844 L425,376.4844 " fill="#FEFFDD" style="stroke:#181818;stroke-width:0.5;"/><text fill="#000000" font-family="sans-serif" font-size="13" lengthAdjust="spacing" textLength="22" x="261" y="394.9795">md:</text><text fill="#000000" font-family="sans-serif" font-size="13" lengthAdjust="spacing" textLength="139" x="277" y="411.3311">Send as attachment? or</text><text fill="#000000" font-family="sans-serif" font-size="13" lengthAdjust="spacing" textLength="49" x="277" y="427.6826">repo link</text><rect fill="#F1F1F1" height="35.0938" rx="12.5" ry="12.5" style="stroke:#181818;stroke-width:0.5;" width="184" x="51" y="388.4648"/><text fill="#000000" font-family="sans-serif" font-size="12" lengthAdjust="spacing" textLength="164" x="61" y="410.9219">Communicate Status to Client</text><rect fill="none" height="154.7969" style="stroke:#000000;stroke-width:1.5;" width="428" x="62" y="445.5391"/><path d="M323,445.5391 L323,456.1484 L313,466.1484 L62,466.1484 " fill="none" style="stroke:#000000;stroke-width:1.5;"/><text fill="#000000" font-family="sans-serif" font-size="14" lengthAdjust="spacing" textLength="251" x="65" y="461.0723">Design Data and Methodology Approval</text><path d="M224,498.0391 L224,573.4453 L470,573.4453 L470,508.0391 L460,498.0391 L224,498.0391 " fill="#FEFFDD" style="stroke:#181818;stroke-width:0.5;"/><path d="M460,498.0391 L460,508.0391 L470,508.0391 L460,498.0391 " fill="#FEFFDD" style="stroke:#181818;stroke-width:0.5;"/><text fill="#000000" font-family="sans-serif" font-size="13" lengthAdjust="spacing" textLength="166" x="230" y="516.5342">Can be cyclic (2-3 iterations)</text><text fill="#000000" font-family="sans-serif" font-size="13" lengthAdjust="spacing" textLength="163" x="230" y="532.8857">Prepare to run draft analysis</text><text fill="#000000" font-family="sans-serif" font-size="13" lengthAdjust="spacing" textLength="225" x="230" y="549.2373">Assume analysis is always re-analysis</text><text fill="#000000" font-family="sans-serif" font-size="13" lengthAdjust="spacing" textLength="141" x="230" y="565.5889">Provide timeline to client</text><rect fill="#F1F1F1" height="35.0938" rx="12.5" ry="12.5" style="stroke:#181818;stroke-width:0.5;" width="102" x="92" y="483.1484"/><text fill="#000000" font-family="sans-serif" font-size="12" lengthAdjust="spacing" textLength="82" x="102" y="505.6055">Client Reviews</text><rect fill="#F1F1F1" height="35.0938" rx="12.5" ry="12.5" style="stroke:#181818;stroke-width:0.5;" width="142" x="72" y="553.2422"/><text fill="#000000" font-family="sans-serif" font-size="12" lengthAdjust="spacing" textLength="122" x="82" y="575.6992">Get client confirmation</text><rect fill="none" height="354.7422" style="stroke:#000000;stroke-width:1.5;" width="525.5" x="59" y="610.3359"/><path d="M121,610.3359 L121,620.9453 L111,630.9453 L59,630.9453 " fill="none" style="stroke:#000000;stroke-width:1.5;"/><text fill="#000000" font-family="sans-serif" font-size="14" lengthAdjust="spacing" textLength="52" x="62" y="625.8691">Analysis</text><path d="M236.5,640.9453 L236.5,682.8242 L216.5,686.8242 L236.5,690.8242 L236.5,732.7031 A0,0 0 0 0 236.5,732.7031 L574.5,732.7031 A0,0 0 0 0 574.5,732.7031 L574.5,650.9453 L564.5,640.9453 L236.5,640.9453 A0,0 0 0 0 236.5,640.9453 " fill="#FEFFDD" style="stroke:#181818;stroke-width:0.5;"/><path d="M564.5,640.9453 L564.5,650.9453 L574.5,650.9453 L564.5,640.9453 " fill="#FEFFDD" style="stroke:#181818;stroke-width:0.5;"/><text fill="#000000" font-family="sans-serif" font-size="13" lengthAdjust="spacing" textLength="96" x="242.5" y="659.4404">Each matrix set:</text><text fill="#000000" font-family="sans-serif" font-size="13" lengthAdjust="spacing" textLength="182" x="246.5" y="675.792">should give operating envelopes</text><text fill="#000000" font-family="sans-serif" font-size="13" lengthAdjust="spacing" textLength="105" x="246.5" y="692.1436">high level answers</text><text fill="#000000" font-family="sans-serif" font-size="13" lengthAdjust="spacing" textLength="126" x="242.5" y="708.4951">Guide with next steps</text><text fill="#000000" font-family="sans-serif" font-size="13" lengthAdjust="spacing" textLength="317" x="242.5" y="724.8467">Helps define re-analysis and postprocess requirements</text><rect fill="#F1F1F1" height="35.0938" rx="12.5" ry="12.5" style="stroke:#181818;stroke-width:0.5;" width="147" x="69.5" y="669.2773"/><text fill="#000000" font-family="sans-serif" font-size="12" lengthAdjust="spacing" textLength="124" x="82.5" y="691.7344">Setoff 2 Analysis Matrix</text><rect fill="#F1F1F1" height="35.0938" rx="12.5" ry="12.5" style="stroke:#181818;stroke-width:0.5;" width="135" x="75.5" y="752.7031"/><text fill="#000000" font-family="sans-serif" font-size="12" lengthAdjust="spacing" textLength="112" x="88.5" y="775.1602">PostProcess results</text><rect fill="#F1F1F1" height="35.0938" rx="12.5" ry="12.5" style="stroke:#181818;stroke-width:0.5;" width="148" x="69" y="807.7969"/><text fill="#000000" font-family="sans-serif" font-size="12" lengthAdjust="spacing" textLength="125" x="82" y="830.2539">Spot check animations</text><rect fill="#F1F1F1" height="35.0938" rx="12.5" ry="12.5" style="stroke:#181818;stroke-width:0.5;" width="104" x="91" y="862.8906"/><text fill="#000000" font-family="sans-serif" font-size="12" lengthAdjust="spacing" textLength="81" x="104" y="885.3477">Review results</text><rect fill="#F1F1F1" height="35.0938" rx="12.5" ry="12.5" style="stroke:#181818;stroke-width:0.5;" width="143" x="71.5" y="917.9844"/><text fill="#000000" font-family="sans-serif" font-size="12" lengthAdjust="spacing" textLength="120" x="84.5" y="940.4414">Client communication</text><rect fill="none" height="249.9844" style="stroke:#000000;stroke-width:1.5;" width="264" x="11" y="975.6543"/><path d="M265,975.6543 L265,986.2637 L255,996.2637 L11,996.2637 " fill="none" style="stroke:#000000;stroke-width:1.5;"/><text fill="#000000" font-family="sans-serif" font-size="14" lengthAdjust="spacing" textLength="244" x="14" y="991.1875">Full Analysis, Postprocess and Results</text><rect fill="#F1F1F1" height="35.0938" rx="12.5" ry="12.5" style="stroke:#181818;stroke-width:0.5;" width="126" x="80" y="1013.2637"/><text fill="#000000" font-family="sans-serif" font-size="12" lengthAdjust="spacing" textLength="103" x="93" y="1035.7207">Set up full analysis</text><rect fill="#F1F1F1" height="35.0938" rx="12.5" ry="12.5" style="stroke:#181818;stroke-width:0.5;" width="89" x="98.5" y="1068.3574"/><text fill="#000000" font-family="sans-serif" font-size="12" lengthAdjust="spacing" textLength="66" x="111.5" y="1090.8145">Postpcoess</text><rect fill="#F1F1F1" height="35.0938" rx="12.5" ry="12.5" style="stroke:#181818;stroke-width:0.5;" width="169" x="58.5" y="1123.4512"/><text fill="#000000" font-family="sans-serif" font-size="12" lengthAdjust="spacing" textLength="146" x="71.5" y="1145.9082">Prepare results and charts</text><rect fill="#F1F1F1" height="35.0938" rx="12.5" ry="12.5" style="stroke:#181818;stroke-width:0.5;" width="150" x="68" y="1178.5449"/><text fill="#000000" font-family="sans-serif" font-size="12" lengthAdjust="spacing" textLength="127" x="81" y="1201.002">Document conclusions</text><rect fill="#F1F1F1" height="35.0938" rx="12.5" ry="12.5" style="stroke:#181818;stroke-width:0.5;" width="83" x="101.5" y="1245.6387"/><text fill="#000000" font-family="sans-serif" font-size="12" lengthAdjust="spacing" textLength="60" x="114.5" y="1268.0957">Full Report</text><ellipse cx="143" cy="1311.7324" fill="none" rx="11" ry="11" style="stroke:#222222;stroke-width:1.0;"/><ellipse cx="143" cy="1311.7324" fill="#222222" rx="6" ry="6" style="stroke:#111111;stroke-width:1.0;"/><line style="stroke:#181818;stroke-width:1.0;" x1="143" x2="143" y1="168.9219" y2="188.9219"/><polygon fill="#181818" points="139,178.9219,143,188.9219,147,178.9219,143,182.9219" style="stroke:#181818;stroke-width:1.0;"/><line style="stroke:#181818;stroke-width:1.0;" x1="143" x2="143" y1="224.0156" y2="259.0156"/><polygon fill="#181818" points="139,249.0156,143,259.0156,147,249.0156,143,253.0156" style="stroke:#181818;stroke-width:1.0;"/><line style="stroke:#181818;stroke-width:1.0;" x1="143" x2="143" y1="86.2188" y2="133.8281"/><polygon fill="#181818" points="139,123.8281,143,133.8281,147,123.8281,143,127.8281" style="stroke:#181818;stroke-width:1.0;"/><line style="stroke:#181818;stroke-width:1.0;" x1="143" x2="143" y1="354.4844" y2="388.4648"/><polygon fill="#181818" points="139,378.4648,143,388.4648,147,378.4648,143,382.4648" style="stroke:#181818;stroke-width:1.0;"/><line style="stroke:#181818;stroke-width:1.0;" x1="143" x2="143" y1="518.2422" y2="553.2422"/><polygon fill="#181818" points="139,543.2422,143,553.2422,147,543.2422,143,547.2422" style="stroke:#181818;stroke-width:1.0;"/><line style="stroke:#181818;stroke-width:1.0;" x1="143" x2="143" y1="423.5586" y2="483.1484"/><polygon fill="#181818" points="139,473.1484,143,483.1484,147,473.1484,143,477.1484" style="stroke:#181818;stroke-width:1.0;"/><line style="stroke:#181818;stroke-width:1.0;" x1="143" x2="143" y1="704.3711" y2="752.7031"/><polygon fill="#181818" points="139,742.7031,143,752.7031,147,742.7031,143,746.7031" style="stroke:#181818;stroke-width:1.0;"/><line style="stroke:#181818;stroke-width:1.0;" x1="143" x2="143" y1="787.7969" y2="807.7969"/><polygon fill="#181818" points="139,797.7969,143,807.7969,147,797.7969,143,801.7969" style="stroke:#181818;stroke-width:1.0;"/><line style="stroke:#181818;stroke-width:1.0;" x1="143" x2="143" y1="842.8906" y2="862.8906"/><polygon fill="#181818" points="139,852.8906,143,862.8906,147,852.8906,143,856.8906" style="stroke:#181818;stroke-width:1.0;"/><line style="stroke:#181818;stroke-width:1.0;" x1="143" x2="143" y1="897.9844" y2="917.9844"/><polygon fill="#181818" points="139,907.9844,143,917.9844,147,907.9844,143,911.9844" style="stroke:#181818;stroke-width:1.0;"/><line style="stroke:#181818;stroke-width:1.0;" x1="143" x2="143" y1="588.3359" y2="669.2773"/><polygon fill="#181818" points="139,659.2773,143,669.2773,147,659.2773,143,663.2773" style="stroke:#181818;stroke-width:1.0;"/><line style="stroke:#181818;stroke-width:1.0;" x1="143" x2="143" y1="1048.3574" y2="1068.3574"/><polygon fill="#181818" points="139,1058.3574,143,1068.3574,147,1058.3574,143,1062.3574" style="stroke:#181818;stroke-width:1.0;"/><line style="stroke:#181818;stroke-width:1.0;" x1="143" x2="143" y1="1103.4512" y2="1123.4512"/><polygon fill="#181818" points="139,1113.4512,143,1123.4512,147,1113.4512,143,1117.4512" style="stroke:#181818;stroke-width:1.0;"/><line style="stroke:#181818;stroke-width:1.0;" x1="143" x2="143" y1="1158.5449" y2="1178.5449"/><polygon fill="#181818" points="139,1168.5449,143,1178.5449,147,1168.5449,143,1172.5449" style="stroke:#181818;stroke-width:1.0;"/><line style="stroke:#181818;stroke-width:1.0;" x1="143" x2="143" y1="953.0781" y2="1013.2637"/><polygon fill="#181818" points="139,1003.2637,143,1013.2637,147,1003.2637,143,1007.2637" style="stroke:#181818;stroke-width:1.0;"/><line style="stroke:#181818;stroke-width:1.0;" x1="143" x2="143" y1="1213.6387" y2="1245.6387"/><polygon fill="#181818" points="139,1235.6387,143,1245.6387,147,1235.6387,143,1239.6387" style="stroke:#181818;stroke-width:1.0;"/><line style="stroke:#181818;stroke-width:1.0;" x1="143" x2="143" y1="1280.7324" y2="1300.7324"/><polygon fill="#181818" points="139,1290.7324,143,1300.7324,147,1290.7324,143,1294.7324" style="stroke:#181818;stroke-width:1.0;"/><rect fill="none" height="25.1563" style="stroke:none;stroke-width:1.0;" width="150" x="221.25" y="1321.7324"/><text fill="#888888" font-family="sans-serif" font-size="10" lengthAdjust="spacing" textLength="96" x="248.25" y="1332.1133">2022.11.17 at 10:53</text><text fill="#888888" font-family="sans-serif" font-size="10" lengthAdjust="spacing" textLength="150" x="221.25" y="1344.6914">engineering_analysis_slas.puml</text><!--MD5=[4b01307f78098f17888968f8220d1bdb]
@startuml engineering_analysis_workflow
skinparam titleBorderRoundCorner 15
skinparam titleBorderThickness 2
skinparam titleBorderColor red
skinparam titleBackgroundColor Tomato

title Engineering Analysis \n Typical Workflow 

start

    partition "Design Data and Methodology" {

        note right
            Markdown for:
             Maintenance 
             Portability
             Add flowcharts in puml
        end note

        :Standard design data template;
        :Data known is documented;
        :Data unknown:
            Fill in Generic assumptions
            Fill other assumptions 
            Leave Blanks
            Use color codes;
    }

    :Communicate Status to Client;
        note right
            md: 
                Send as attachment? or 
                repo link 
        end note
    partition "Design Data and Methodology Approval" {

        note right
            Can be cyclic (2-3 iterations)
            Prepare to run draft analysis
            Assume analysis is always re-analysis
            Provide timeline to client
        end note

        :Client Reviews;
        :Get client confirmation;

    }


    partition "Analysis" {
    : Setoff 2 Analysis Matrix;

        note right
            Each matrix set:
             should give operating envelopes
             high level answers
            Guide with next steps
            Helps define re-analysis and postprocess requirements
        end note

    : PostProcess results;
    : Spot check animations;
    : Review results;
    : Client communication;
    }

    partition "Full Analysis, Postprocess and Results" {
    : Set up full analysis;
    : Postpcoess;
    : Prepare results and charts;
    : Document conclusions;
    }

: Full Report;

stop

footer
%date("yyyy.MM.dd' at 'HH:mm")
%filename()
end footer

@enduml

@startuml engineering_analysis_workflow
skinparam titleBorderRoundCorner 15
skinparam titleBorderThickness 2
skinparam titleBorderColor red
skinparam titleBackgroundColor Tomato

title Engineering Analysis \n Typical Workflow 

start

    partition "Design Data and Methodology" {

        note right
            Markdown for:
             Maintenance 
             Portability
             Add flowcharts in puml
        end note

        :Standard design data template;
        :Data known is documented;
        :Data unknown:
            Fill in Generic assumptions
            Fill other assumptions 
            Leave Blanks
            Use color codes;
    }

    :Communicate Status to Client;
        note right
            md: 
                Send as attachment? or 
                repo link 
        end note
    partition "Design Data and Methodology Approval" {

        note right
            Can be cyclic (2-3 iterations)
            Prepare to run draft analysis
            Assume analysis is always re-analysis
            Provide timeline to client
        end note

        :Client Reviews;
        :Get client confirmation;

    }


    partition "Analysis" {
    : Setoff 2 Analysis Matrix;

        note right
            Each matrix set:
             should give operating envelopes
             high level answers
            Guide with next steps
            Helps define re-analysis and postprocess requirements
        end note

    : PostProcess results;
    : Spot check animations;
    : Review results;
    : Client communication;
    }

    partition "Full Analysis, Postprocess and Results" {
    : Set up full analysis;
    : Postpcoess;
    : Prepare results and charts;
    : Document conclusions;
    }

: Full Report;

stop

footer
2022.11.17 at 10:53
engineering_analysis_slas.puml
end footer

@enduml

PlantUML version 1.2022.8(Sun Sep 25 04:00:33 CDT 2022)
(GPL source distribution)
Java Runtime: OpenJDK Runtime Environment
JVM: OpenJDK 64-Bit Server VM
Default Encoding: UTF-8
Language: en
Country: US
--></g></svg>