<?xml version="1.0" encoding="UTF-8" standalone="no"?><svg xmlns="http://www.w3.org/2000/svg" xmlns:xlink="http://www.w3.org/1999/xlink" contentStyleType="text/css" height="752px" preserveAspectRatio="none" style="width:1508px;height:752px;background:#FFFFFF;" version="1.1" viewBox="0 0 1508 752" width="1508px" zoomAndPan="magnify"><defs/><g><text fill="#000000" font-family="Serif" font-size="40" lengthAdjust="spacing" textLength="56" x="4" y="105.9141">We</text><text fill="#000000" font-family="Serif" font-size="40" lengthAdjust="spacing" textLength="48" x="72" y="105.9141">Th</text><text fill="#000000" font-family="Serif" font-size="40" lengthAdjust="spacing" textLength="36" x="142" y="105.9141">Fr</text><text fill="#000000" font-family="Serif" font-size="40" lengthAdjust="spacing" textLength="40" x="204" y="105.9141">Sa</text><text fill="#000000" font-family="Serif" font-size="40" lengthAdjust="spacing" textLength="44" x="266" y="105.9141">Su</text><text fill="#000000" font-family="Serif" font-size="40" lengthAdjust="spacing" textLength="56" x="324" y="105.9141">Mo</text><text fill="#000000" font-family="Serif" font-size="40" lengthAdjust="spacing" textLength="48" x="392" y="105.9141">Tu</text><text fill="#000000" font-family="Serif" font-size="40" lengthAdjust="spacing" textLength="56" x="452" y="105.9141">We</text><text fill="#000000" font-family="Serif" font-size="40" lengthAdjust="spacing" textLength="48" x="520" y="105.9141">Th</text><text fill="#000000" font-family="Serif" font-size="40" lengthAdjust="spacing" textLength="36" x="590" y="105.9141">Fr</text><text fill="#000000" font-family="Serif" font-size="40" lengthAdjust="spacing" textLength="40" x="652" y="105.9141">Sa</text><text fill="#000000" font-family="Serif" font-size="40" lengthAdjust="spacing" textLength="44" x="714" y="105.9141">Su</text><text fill="#000000" font-family="Serif" font-size="40" lengthAdjust="spacing" textLength="40" x="12" y="153.9141">24</text><text fill="#000000" font-family="Serif" font-size="40" lengthAdjust="spacing" textLength="40" x="76" y="153.9141">25</text><text fill="#000000" font-family="Serif" font-size="40" lengthAdjust="spacing" textLength="40" x="140" y="153.9141">26</text><text fill="#000000" font-family="Serif" font-size="40" lengthAdjust="spacing" textLength="40" x="204" y="153.9141">27</text><text fill="#000000" font-family="Serif" font-size="40" lengthAdjust="spacing" textLength="40" x="268" y="153.9141">28</text><text fill="#000000" font-family="Serif" font-size="40" lengthAdjust="spacing" textLength="40" x="332" y="153.9141">29</text><text fill="#000000" font-family="Serif" font-size="40" lengthAdjust="spacing" textLength="40" x="396" y="153.9141">30</text><text fill="#000000" font-family="Serif" font-size="40" lengthAdjust="spacing" textLength="20" x="470" y="153.9141">1</text><text fill="#000000" font-family="Serif" font-size="40" lengthAdjust="spacing" textLength="20" x="534" y="153.9141">2</text><text fill="#000000" font-family="Serif" font-size="40" lengthAdjust="spacing" textLength="20" x="598" y="153.9141">3</text><text fill="#000000" font-family="Serif" font-size="40" lengthAdjust="spacing" textLength="20" x="662" y="153.9141">4</text><text fill="#000000" font-family="Serif" font-size="40" lengthAdjust="spacing" textLength="20" x="726" y="153.9141">5</text><text fill="#000000" font-family="Serif" font-size="48" font-weight="bold" lengthAdjust="spacing" textLength="320" x="64" y="50.2969">November 2021</text><text fill="#000000" font-family="Serif" font-size="48" font-weight="bold" lengthAdjust="spacing" textLength="320" x="448" y="50.2969">December 2021</text><line style="stroke:#C0C0C0;stroke-width:4.0;" x1="0" x2="0" y1="164" y2="592.0625"/><line style="stroke:#C0C0C0;stroke-width:4.0;" x1="64" x2="64" y1="164" y2="592.0625"/><line style="stroke:#C0C0C0;stroke-width:4.0;" x1="128" x2="128" y1="164" y2="592.0625"/><line style="stroke:#C0C0C0;stroke-width:4.0;" x1="192" x2="192" y1="164" y2="592.0625"/><line style="stroke:#C0C0C0;stroke-width:4.0;" x1="256" x2="256" y1="164" y2="592.0625"/><line style="stroke:#C0C0C0;stroke-width:4.0;" x1="320" x2="320" y1="164" y2="592.0625"/><line style="stroke:#C0C0C0;stroke-width:4.0;" x1="384" x2="384" y1="164" y2="592.0625"/><line style="stroke:#C0C0C0;stroke-width:4.0;" x1="448" x2="448" y1="164" y2="592.0625"/><line style="stroke:#C0C0C0;stroke-width:4.0;" x1="512" x2="512" y1="164" y2="592.0625"/><line style="stroke:#C0C0C0;stroke-width:4.0;" x1="576" x2="576" y1="164" y2="592.0625"/><line style="stroke:#C0C0C0;stroke-width:4.0;" x1="640" x2="640" y1="164" y2="592.0625"/><line style="stroke:#C0C0C0;stroke-width:4.0;" x1="704" x2="704" y1="164" y2="592.0625"/><line style="stroke:#C0C0C0;stroke-width:4.0;" x1="768" x2="768" y1="164" y2="592.0625"/><line style="stroke:#C0C0C0;stroke-width:4.0;" x1="0" x2="768" y1="164" y2="164"/><line style="stroke:#C0C0C0;stroke-width:4.0;" x1="0" x2="768" y1="592.0625" y2="592.0625"/><line style="stroke:#181818;stroke-width:6.0;" x1="-36" x2="-36" y1="227.3438" y2="271.0156"/><line style="stroke:#181818;stroke-width:6.0;" x1="-36" x2="-4" y1="271.0156" y2="271.0156"/><polygon fill="#181818" points="-20,255.0156,-20,271.0156,-20,287.0156,-4,271.0156" style="stroke:#181818;stroke-width:6.0;"/><line style="stroke:#181818;stroke-width:6.0;" x1="92" x2="92" y1="298.6875" y2="342.3594"/><line style="stroke:#181818;stroke-width:6.0;" x1="92" x2="124" y1="342.3594" y2="342.3594"/><polygon fill="#181818" points="108,326.3594,108,342.3594,108,358.3594,124,342.3594" style="stroke:#181818;stroke-width:6.0;"/><line style="stroke:#181818;stroke-width:6.0;" x1="348" x2="348" y1="370.0313" y2="413.7031"/><line style="stroke:#181818;stroke-width:6.0;" x1="348" x2="380" y1="413.7031" y2="413.7031"/><polygon fill="#181818" points="364,397.7031,364,413.7031,364,429.7031,380,413.7031" style="stroke:#181818;stroke-width:6.0;"/><line style="stroke:#181818;stroke-width:6.0;" x1="476" x2="476" y1="441.375" y2="485.0469"/><line style="stroke:#181818;stroke-width:6.0;" x1="476" x2="508" y1="485.0469" y2="485.0469"/><polygon fill="#181818" points="492,469.0469,492,485.0469,492,501.0469,508,485.0469" style="stroke:#181818;stroke-width:6.0;"/><line style="stroke:#181818;stroke-width:6.0;" x1="604" x2="604" y1="512.7188" y2="556.3906"/><line style="stroke:#181818;stroke-width:6.0;" x1="604" x2="636" y1="556.3906" y2="556.3906"/><polygon fill="#181818" points="620,540.3906,620,556.3906,620,572.3906,636,556.3906" style="stroke:#181818;stroke-width:6.0;"/><rect fill="#FF7F50" height="55.3438" style="stroke:none;stroke-width:4.0;" width="4" x="8" y="172"/><line style="stroke:#FF7F50;stroke-width:4.0;" x1="8" x2="12" y1="172" y2="172"/><line style="stroke:#FF7F50;stroke-width:4.0;" x1="8" x2="12" y1="227.3438" y2="227.3438"/><line style="stroke:#FF7F50;stroke-width:4.0;" x1="8" x2="8" y1="172" y2="227.3438"/><line style="stroke:#FF7F50;stroke-width:4.0;" x1="12" x2="12" y1="172" y2="227.3438"/><rect fill="#E6E6FA" height="55.3438" style="stroke:none;stroke-width:4.0;" width="112" x="8" y="243.3438"/><line style="stroke:#ADD8E6;stroke-width:4.0;" x1="8" x2="120" y1="243.3438" y2="243.3438"/><line style="stroke:#ADD8E6;stroke-width:4.0;" x1="8" x2="120" y1="298.6875" y2="298.6875"/><line style="stroke:#ADD8E6;stroke-width:4.0;" x1="8" x2="8" y1="243.3438" y2="298.6875"/><line style="stroke:#ADD8E6;stroke-width:4.0;" x1="120" x2="120" y1="243.3438" y2="298.6875"/><rect fill="#E6E6FA" height="55.3438" style="stroke:none;stroke-width:4.0;" width="240" x="136" y="314.6875"/><line style="stroke:#ADD8E6;stroke-width:4.0;" x1="136" x2="376" y1="314.6875" y2="314.6875"/><line style="stroke:#ADD8E6;stroke-width:4.0;" x1="136" x2="376" y1="370.0313" y2="370.0313"/><line style="stroke:#ADD8E6;stroke-width:4.0;" x1="136" x2="136" y1="314.6875" y2="370.0313"/><line style="stroke:#ADD8E6;stroke-width:4.0;" x1="376" x2="376" y1="314.6875" y2="370.0313"/><rect fill="#E6E6FA" height="55.3438" style="stroke:none;stroke-width:4.0;" width="112" x="392" y="386.0313"/><line style="stroke:#ADD8E6;stroke-width:4.0;" x1="392" x2="504" y1="386.0313" y2="386.0313"/><line style="stroke:#ADD8E6;stroke-width:4.0;" x1="392" x2="504" y1="441.375" y2="441.375"/><line style="stroke:#ADD8E6;stroke-width:4.0;" x1="392" x2="392" y1="386.0313" y2="441.375"/><line style="stroke:#ADD8E6;stroke-width:4.0;" x1="504" x2="504" y1="386.0313" y2="441.375"/><rect fill="#E6E6FA" height="55.3438" style="stroke:none;stroke-width:4.0;" width="112" x="520" y="457.375"/><line style="stroke:#ADD8E6;stroke-width:4.0;" x1="520" x2="632" y1="457.375" y2="457.375"/><line style="stroke:#ADD8E6;stroke-width:4.0;" x1="520" x2="632" y1="512.7188" y2="512.7188"/><line style="stroke:#ADD8E6;stroke-width:4.0;" x1="520" x2="520" y1="457.375" y2="512.7188"/><line style="stroke:#ADD8E6;stroke-width:4.0;" x1="632" x2="632" y1="457.375" y2="512.7188"/><rect fill="#E6E6FA" height="55.3438" style="stroke:none;stroke-width:4.0;" width="112" x="648" y="528.7188"/><line style="stroke:#ADD8E6;stroke-width:4.0;" x1="648" x2="760" y1="528.7188" y2="528.7188"/><line style="stroke:#ADD8E6;stroke-width:4.0;" x1="648" x2="760" y1="584.0625" y2="584.0625"/><line style="stroke:#ADD8E6;stroke-width:4.0;" x1="648" x2="648" y1="528.7188" y2="584.0625"/><line style="stroke:#ADD8E6;stroke-width:4.0;" x1="760" x2="760" y1="528.7188" y2="584.0625"/><text fill="#000000" font-family="sans-serif" font-size="44" lengthAdjust="spacing" textLength="356" x="8" y="217.6758">Splashtop Access</text><text fill="#000000" font-family="sans-serif" font-size="44" lengthAdjust="spacing" textLength="604" x="136" y="289.0195">Update RAO and sanity checks</text><text fill="#000000" font-family="sans-serif" font-size="44" lengthAdjust="spacing" textLength="260" x="392" y="360.3633">Update model</text><text fill="#000000" font-family="sans-serif" font-size="44" lengthAdjust="spacing" textLength="364" x="520" y="431.707">Preliminary Results</text><text fill="#000000" font-family="sans-serif" font-size="44" lengthAdjust="spacing" textLength="244" x="648" y="503.0508">Final Results</text><text fill="#000000" font-family="sans-serif" font-size="44" lengthAdjust="spacing" textLength="724" x="776" y="574.3945">Upstream/Downstream (not in scope)</text><text fill="#000000" font-family="Serif" font-size="40" lengthAdjust="spacing" textLength="40" x="12" y="681.9766">24</text><text fill="#000000" font-family="Serif" font-size="40" lengthAdjust="spacing" textLength="40" x="76" y="681.9766">25</text><text fill="#000000" font-family="Serif" font-size="40" lengthAdjust="spacing" textLength="40" x="140" y="681.9766">26</text><text fill="#000000" font-family="Serif" font-size="40" lengthAdjust="spacing" textLength="40" x="204" y="681.9766">27</text><text fill="#000000" font-family="Serif" font-size="40" lengthAdjust="spacing" textLength="40" x="268" y="681.9766">28</text><text fill="#000000" font-family="Serif" font-size="40" lengthAdjust="spacing" textLength="40" x="332" y="681.9766">29</text><text fill="#000000" font-family="Serif" font-size="40" lengthAdjust="spacing" textLength="40" x="396" y="681.9766">30</text><text fill="#000000" font-family="Serif" font-size="40" lengthAdjust="spacing" textLength="20" x="470" y="681.9766">1</text><text fill="#000000" font-family="Serif" font-size="40" lengthAdjust="spacing" textLength="20" x="534" y="681.9766">2</text><text fill="#000000" font-family="Serif" font-size="40" lengthAdjust="spacing" textLength="20" x="598" y="681.9766">3</text><text fill="#000000" font-family="Serif" font-size="40" lengthAdjust="spacing" textLength="20" x="662" y="681.9766">4</text><text fill="#000000" font-family="Serif" font-size="40" lengthAdjust="spacing" textLength="20" x="726" y="681.9766">5</text><text fill="#000000" font-family="Serif" font-size="40" lengthAdjust="spacing" textLength="56" x="4" y="633.9766">We</text><text fill="#000000" font-family="Serif" font-size="40" lengthAdjust="spacing" textLength="48" x="72" y="633.9766">Th</text><text fill="#000000" font-family="Serif" font-size="40" lengthAdjust="spacing" textLength="36" x="142" y="633.9766">Fr</text><text fill="#000000" font-family="Serif" font-size="40" lengthAdjust="spacing" textLength="40" x="204" y="633.9766">Sa</text><text fill="#000000" font-family="Serif" font-size="40" lengthAdjust="spacing" textLength="44" x="266" y="633.9766">Su</text><text fill="#000000" font-family="Serif" font-size="40" lengthAdjust="spacing" textLength="56" x="324" y="633.9766">Mo</text><text fill="#000000" font-family="Serif" font-size="40" lengthAdjust="spacing" textLength="48" x="392" y="633.9766">Tu</text><text fill="#000000" font-family="Serif" font-size="40" lengthAdjust="spacing" textLength="56" x="452" y="633.9766">We</text><text fill="#000000" font-family="Serif" font-size="40" lengthAdjust="spacing" textLength="48" x="520" y="633.9766">Th</text><text fill="#000000" font-family="Serif" font-size="40" lengthAdjust="spacing" textLength="36" x="590" y="633.9766">Fr</text><text fill="#000000" font-family="Serif" font-size="40" lengthAdjust="spacing" textLength="40" x="652" y="633.9766">Sa</text><text fill="#000000" font-family="Serif" font-size="40" lengthAdjust="spacing" textLength="44" x="714" y="633.9766">Su</text><text fill="#000000" font-family="Serif" font-size="48" font-weight="bold" lengthAdjust="spacing" textLength="320" x="64" y="738.3594">November 2021</text><text fill="#000000" font-family="Serif" font-size="48" font-weight="bold" lengthAdjust="spacing" textLength="320" x="448" y="738.3594">December 2021</text><!--MD5=[c8b82bc0e77195e85fcae3ceba159dc4]
@startgantt
scale 4
Project starts the 2021/11/24
[Splashtop Access] lasts 0 days and is colored in Coral
[Update RAO and sanity checks] starts 0 day after [Splashtop Access]'s end  and lasts 2 days and is colored in Lavender/LightBlue
[Update model]  starts 0 day after [Update RAO and sanity checks]'s end and lasts 4 days and is colored in Lavender/LightBlue
[Preliminary Results]  starts 0 day after [Update model]'s end and lasts 2 days and is colored in Lavender/LightBlue
[Final Results] starts 0 day after [Preliminary Results]'s end and lasts 2 days and is colored in Lavender/LightBlue
[Upstream/Downstream (not in scope)] starts 0 day after [Final Results]'s end and lasts 2 days and is colored in Lavender/LightBlue
@endgantt

PlantUML version 1.2022.8(Sun Sep 25 04:00:33 CDT 2022)
(GPL source distribution)
Java Runtime: OpenJDK Runtime Environment
JVM: OpenJDK 64-Bit Server VM
Default Encoding: UTF-8
Language: en
Country: US
--></g></svg>