<?xml version="1.0" encoding="UTF-8" standalone="no"?><svg xmlns="http://www.w3.org/2000/svg" xmlns:xlink="http://www.w3.org/1999/xlink" contentScriptType="application/ecmascript" contentStyleType="text/css" height="1478px" preserveAspectRatio="none" style="width:601px;height:1478px;background:#FFFFFF;" version="1.1" viewBox="0 0 601 1478" width="601px" zoomAndPan="magnify"><defs><filter height="300%" id="flc7bpw9060wt" width="300%" x="-1" y="-1"><feGaussianBlur result="blurOut" stdDeviation="2.0"/><feColorMatrix in="blurOut" result="blurOut2" type="matrix" values="0 0 0 0 0 0 0 0 0 0 0 0 0 0 0 0 0 0 .4 0"/><feOffset dx="4.0" dy="4.0" in="blurOut2" result="blurOut3"/><feBlend in="SourceGraphic" in2="blurOut3" mode="normal"/></filter></defs><g><rect fill="#FF6347" height="55.2813" rx="7.5" ry="7.5" style="stroke:#FF0000;stroke-width:2.0;" width="188" x="205.25" y="12"/><text fill="#000000" font-family="sans-serif" font-size="18" lengthAdjust="spacing" textLength="167" x="213.25" y="35.6855">Engineering Analysis</text><text fill="#000000" font-family="sans-serif" font-size="18" lengthAdjust="spacing" textLength="137" x="233.25" y="58.3262">Typical Workflow</text><path d="M65,70.2813 L65,145.6875 L221,145.6875 L221,80.2813 L211,70.2813 L65,70.2813 " fill="#FBFB77" filter="url(#flc7bpw9060wt)" style="stroke:#A80036;stroke-width:1.0;"/><path d="M211,70.2813 L211,80.2813 L221,80.2813 L211,70.2813 " fill="#FBFB77" style="stroke:#A80036;stroke-width:1.0;"/><text fill="#000000" font-family="sans-serif" font-size="13" lengthAdjust="spacing" textLength="81" x="71" y="88.7764">Markdown for:</text><text fill="#000000" font-family="sans-serif" font-size="13" lengthAdjust="spacing" textLength="74" x="75" y="105.1279">Maintenance</text><text fill="#000000" font-family="sans-serif" font-size="13" lengthAdjust="spacing" textLength="58" x="75" y="121.4795">Portability</text><text fill="#000000" font-family="sans-serif" font-size="13" lengthAdjust="spacing" textLength="131" x="75" y="137.8311">Add flowcharts in puml</text><ellipse cx="143" cy="175.6875" fill="#000000" filter="url(#flc7bpw9060wt)" rx="10" ry="10" style="stroke:none;stroke-width:1.0;"/><rect fill="#FFFFFF" filter="url(#flc7bpw9060wt)" height="285.3594" style="stroke:#000000;stroke-width:2.0;" width="385" x="38.5" y="195.6875"/><path d="M317.5,195.6875 L317.5,206.2969 L307.5,216.2969 L38.5,216.2969 " fill="none" style="stroke:#000000;stroke-width:2.0;"/><text fill="#000000" font-family="sans-serif" font-size="14" lengthAdjust="spacing" textLength="269" x="41.5" y="211.2207">Design Data and Methodology Preperation</text><path d="M247.5,305.9688 L247.5,381.375 L403.5,381.375 L403.5,315.9688 L393.5,305.9688 L247.5,305.9688 " fill="#FBFB77" filter="url(#flc7bpw9060wt)" style="stroke:#A80036;stroke-width:1.0;"/><path d="M393.5,305.9688 L393.5,315.9688 L403.5,315.9688 L393.5,305.9688 " fill="#FBFB77" style="stroke:#A80036;stroke-width:1.0;"/><text fill="#000000" font-family="sans-serif" font-size="13" lengthAdjust="spacing" textLength="81" x="253.5" y="324.4639">Markdown for:</text><text fill="#000000" font-family="sans-serif" font-size="13" lengthAdjust="spacing" textLength="74" x="257.5" y="340.8154">Maintenance</text><text fill="#000000" font-family="sans-serif" font-size="13" lengthAdjust="spacing" textLength="58" x="257.5" y="357.167">Portability</text><text fill="#000000" font-family="sans-serif" font-size="13" lengthAdjust="spacing" textLength="131" x="257.5" y="373.5186">Add flowcharts in puml</text><rect fill="#FEFECE" filter="url(#flc7bpw9060wt)" height="35.0938" rx="12.5" ry="12.5" style="stroke:#A80036;stroke-width:1.5;" width="189" x="48.5" y="233.2969"/><text fill="#000000" font-family="sans-serif" font-size="12" lengthAdjust="spacing" textLength="169" x="58.5" y="255.7539">Standard design data template</text><rect fill="#FEFECE" filter="url(#flc7bpw9060wt)" height="50.1875" rx="12.5" ry="12.5" style="stroke:#A80036;stroke-width:1.5;" width="83" x="101.5" y="288.3906"/><text fill="#000000" font-family="sans-serif" font-size="12" lengthAdjust="spacing" textLength="63" x="111.5" y="310.8477">data known</text><text fill="#000000" font-family="sans-serif" font-size="12" lengthAdjust="spacing" textLength="57" x="117.5" y="325.9414">Document</text><rect fill="#FEFECE" filter="url(#flc7bpw9060wt)" height="95.4688" rx="12.5" ry="12.5" style="stroke:#A80036;stroke-width:1.5;" width="183" x="51.5" y="373.5781"/><text fill="#000000" font-family="sans-serif" font-size="12" lengthAdjust="spacing" textLength="77" x="61.5" y="396.0352">data unknown</text><text fill="#000000" font-family="sans-serif" font-size="12" lengthAdjust="spacing" textLength="151" x="73.5" y="411.1289">Fill in Generic assumptions</text><text fill="#000000" font-family="sans-serif" font-size="12" lengthAdjust="spacing" textLength="123" x="73.5" y="426.2227">Fill other assumptions</text><text fill="#000000" font-family="sans-serif" font-size="12" lengthAdjust="spacing" textLength="74" x="73.5" y="441.3164">Leave Blanks</text><text fill="#000000" font-family="sans-serif" font-size="12" lengthAdjust="spacing" textLength="90" x="73.5" y="456.4102">Use color codes</text><path d="M255,491.0469 L255,516.5742 L235,520.5742 L255,524.5742 L255,550.1016 A0,0 0 0 0 255,550.1016 L435,550.1016 A0,0 0 0 0 435,550.1016 L435,501.0469 L425,491.0469 L255,491.0469 A0,0 0 0 0 255,491.0469 " fill="#FBFB77" filter="url(#flc7bpw9060wt)" style="stroke:#A80036;stroke-width:1.0;"/><path d="M425,491.0469 L425,501.0469 L435,501.0469 L425,491.0469 " fill="#FBFB77" style="stroke:#A80036;stroke-width:1.0;"/><text fill="#000000" font-family="sans-serif" font-size="13" lengthAdjust="spacing" textLength="22" x="261" y="509.542">md:</text><text fill="#000000" font-family="sans-serif" font-size="13" lengthAdjust="spacing" textLength="139" x="277" y="525.8936">Send as attachment? or</text><text fill="#000000" font-family="sans-serif" font-size="13" lengthAdjust="spacing" textLength="49" x="277" y="542.2451">repo link</text><rect fill="#FEFECE" filter="url(#flc7bpw9060wt)" height="35.0938" rx="12.5" ry="12.5" style="stroke:#A80036;stroke-width:1.5;" width="184" x="51" y="503.0273"/><text fill="#000000" font-family="sans-serif" font-size="12" lengthAdjust="spacing" textLength="164" x="61" y="525.4844">Communicate Status to Client</text><rect fill="#FFFFFF" filter="url(#flc7bpw9060wt)" height="154.7969" style="stroke:#000000;stroke-width:2.0;" width="428" x="62" y="560.1016"/><path d="M323,560.1016 L323,570.7109 L313,580.7109 L62,580.7109 " fill="none" style="stroke:#000000;stroke-width:2.0;"/><text fill="#000000" font-family="sans-serif" font-size="14" lengthAdjust="spacing" textLength="251" x="65" y="575.6348">Design Data and Methodology Approval</text><path d="M224,612.6016 L224,688.0078 L470,688.0078 L470,622.6016 L460,612.6016 L224,612.6016 " fill="#FBFB77" filter="url(#flc7bpw9060wt)" style="stroke:#A80036;stroke-width:1.0;"/><path d="M460,612.6016 L460,622.6016 L470,622.6016 L460,612.6016 " fill="#FBFB77" style="stroke:#A80036;stroke-width:1.0;"/><text fill="#000000" font-family="sans-serif" font-size="13" lengthAdjust="spacing" textLength="166" x="230" y="631.0967">Can be cyclic (2-3 iterations)</text><text fill="#000000" font-family="sans-serif" font-size="13" lengthAdjust="spacing" textLength="163" x="230" y="647.4482">Prepare to run draft analysis</text><text fill="#000000" font-family="sans-serif" font-size="13" lengthAdjust="spacing" textLength="225" x="230" y="663.7998">Assume analysis is always re-analysis</text><text fill="#000000" font-family="sans-serif" font-size="13" lengthAdjust="spacing" textLength="141" x="230" y="680.1514">Provide timeline to client</text><rect fill="#FEFECE" filter="url(#flc7bpw9060wt)" height="35.0938" rx="12.5" ry="12.5" style="stroke:#A80036;stroke-width:1.5;" width="102" x="92" y="597.7109"/><text fill="#000000" font-family="sans-serif" font-size="12" lengthAdjust="spacing" textLength="82" x="102" y="620.168">Client Reviews</text><rect fill="#FEFECE" filter="url(#flc7bpw9060wt)" height="35.0938" rx="12.5" ry="12.5" style="stroke:#A80036;stroke-width:1.5;" width="142" x="72" y="667.8047"/><text fill="#000000" font-family="sans-serif" font-size="12" lengthAdjust="spacing" textLength="122" x="82" y="690.2617">Get client confirmation</text><rect fill="#FFFFFF" filter="url(#flc7bpw9060wt)" height="354.7422" style="stroke:#000000;stroke-width:2.0;" width="525.5" x="59" y="724.8984"/><path d="M121,724.8984 L121,735.5078 L111,745.5078 L59,745.5078 " fill="none" style="stroke:#000000;stroke-width:2.0;"/><text fill="#000000" font-family="sans-serif" font-size="14" lengthAdjust="spacing" textLength="52" x="62" y="740.4316">Analysis</text><path d="M236.5,755.5078 L236.5,797.3867 L216.5,801.3867 L236.5,805.3867 L236.5,847.2656 A0,0 0 0 0 236.5,847.2656 L574.5,847.2656 A0,0 0 0 0 574.5,847.2656 L574.5,765.5078 L564.5,755.5078 L236.5,755.5078 A0,0 0 0 0 236.5,755.5078 " fill="#FBFB77" filter="url(#flc7bpw9060wt)" style="stroke:#A80036;stroke-width:1.0;"/><path d="M564.5,755.5078 L564.5,765.5078 L574.5,765.5078 L564.5,755.5078 " fill="#FBFB77" style="stroke:#A80036;stroke-width:1.0;"/><text fill="#000000" font-family="sans-serif" font-size="13" lengthAdjust="spacing" textLength="96" x="242.5" y="774.0029">Each matrix set:</text><text fill="#000000" font-family="sans-serif" font-size="13" lengthAdjust="spacing" textLength="182" x="246.5" y="790.3545">should give operating envelopes</text><text fill="#000000" font-family="sans-serif" font-size="13" lengthAdjust="spacing" textLength="105" x="246.5" y="806.7061">high level answers</text><text fill="#000000" font-family="sans-serif" font-size="13" lengthAdjust="spacing" textLength="126" x="242.5" y="823.0576">Guide with next steps</text><text fill="#000000" font-family="sans-serif" font-size="13" lengthAdjust="spacing" textLength="317" x="242.5" y="839.4092">Helps define re-analysis and postprocess requirements</text><rect fill="#FEFECE" filter="url(#flc7bpw9060wt)" height="35.0938" rx="12.5" ry="12.5" style="stroke:#A80036;stroke-width:1.5;" width="147" x="69.5" y="783.8398"/><text fill="#000000" font-family="sans-serif" font-size="12" lengthAdjust="spacing" textLength="124" x="82.5" y="806.2969">Setoff 2 Analysis Matrix</text><rect fill="#FEFECE" filter="url(#flc7bpw9060wt)" height="35.0938" rx="12.5" ry="12.5" style="stroke:#A80036;stroke-width:1.5;" width="135" x="75.5" y="867.2656"/><text fill="#000000" font-family="sans-serif" font-size="12" lengthAdjust="spacing" textLength="112" x="88.5" y="889.7227">PostProcess results</text><rect fill="#FEFECE" filter="url(#flc7bpw9060wt)" height="35.0938" rx="12.5" ry="12.5" style="stroke:#A80036;stroke-width:1.5;" width="148" x="69" y="922.3594"/><text fill="#000000" font-family="sans-serif" font-size="12" lengthAdjust="spacing" textLength="125" x="82" y="944.8164">Spot check animations</text><rect fill="#FEFECE" filter="url(#flc7bpw9060wt)" height="35.0938" rx="12.5" ry="12.5" style="stroke:#A80036;stroke-width:1.5;" width="104" x="91" y="977.4531"/><text fill="#000000" font-family="sans-serif" font-size="12" lengthAdjust="spacing" textLength="81" x="104" y="999.9102">Review results</text><rect fill="#FEFECE" filter="url(#flc7bpw9060wt)" height="35.0938" rx="12.5" ry="12.5" style="stroke:#A80036;stroke-width:1.5;" width="143" x="71.5" y="1032.5469"/><text fill="#000000" font-family="sans-serif" font-size="12" lengthAdjust="spacing" textLength="120" x="84.5" y="1055.0039">Client communication</text><rect fill="#FFFFFF" filter="url(#flc7bpw9060wt)" height="249.9844" style="stroke:#000000;stroke-width:2.0;" width="264" x="11" y="1090.2168"/><path d="M265,1090.2168 L265,1100.8262 L255,1110.8262 L11,1110.8262 " fill="none" style="stroke:#000000;stroke-width:2.0;"/><text fill="#000000" font-family="sans-serif" font-size="14" lengthAdjust="spacing" textLength="244" x="14" y="1105.75">Full Analysis, Postprocess and Results</text><rect fill="#FEFECE" filter="url(#flc7bpw9060wt)" height="35.0938" rx="12.5" ry="12.5" style="stroke:#A80036;stroke-width:1.5;" width="126" x="80" y="1127.8262"/><text fill="#000000" font-family="sans-serif" font-size="12" lengthAdjust="spacing" textLength="103" x="93" y="1150.2832">Set up full analysis</text><rect fill="#FEFECE" filter="url(#flc7bpw9060wt)" height="35.0938" rx="12.5" ry="12.5" style="stroke:#A80036;stroke-width:1.5;" width="89" x="98.5" y="1182.9199"/><text fill="#000000" font-family="sans-serif" font-size="12" lengthAdjust="spacing" textLength="66" x="111.5" y="1205.377">Postpcoess</text><rect fill="#FEFECE" filter="url(#flc7bpw9060wt)" height="35.0938" rx="12.5" ry="12.5" style="stroke:#A80036;stroke-width:1.5;" width="169" x="58.5" y="1238.0137"/><text fill="#000000" font-family="sans-serif" font-size="12" lengthAdjust="spacing" textLength="146" x="71.5" y="1260.4707">Prepare results and charts</text><rect fill="#FEFECE" filter="url(#flc7bpw9060wt)" height="35.0938" rx="12.5" ry="12.5" style="stroke:#A80036;stroke-width:1.5;" width="150" x="68" y="1293.1074"/><text fill="#000000" font-family="sans-serif" font-size="12" lengthAdjust="spacing" textLength="127" x="81" y="1315.5645">Document conclusions</text><rect fill="#FEFECE" filter="url(#flc7bpw9060wt)" height="35.0938" rx="12.5" ry="12.5" style="stroke:#A80036;stroke-width:1.5;" width="83" x="101.5" y="1360.2012"/><text fill="#000000" font-family="sans-serif" font-size="12" lengthAdjust="spacing" textLength="60" x="114.5" y="1382.6582">Full Report</text><ellipse cx="143" cy="1426.2949" fill="#FFFFFF" filter="url(#flc7bpw9060wt)" rx="11" ry="11" style="stroke:#000000;stroke-width:1.0;"/><ellipse cx="143" cy="1426.2949" fill="#000000" rx="6" ry="6" style="stroke:#7F7F7F;stroke-width:1.0;"/><line style="stroke:#A80036;stroke-width:1.5;" x1="143" x2="143" y1="145.6875" y2="165.6875"/><polygon fill="#A80036" points="139,155.6875,143,165.6875,147,155.6875,143,159.6875" style="stroke:#A80036;stroke-width:1.0;"/><line style="stroke:#A80036;stroke-width:1.5;" x1="143" x2="143" y1="268.3906" y2="288.3906"/><polygon fill="#A80036" points="139,278.3906,143,288.3906,147,278.3906,143,282.3906" style="stroke:#A80036;stroke-width:1.0;"/><line style="stroke:#A80036;stroke-width:1.5;" x1="143" x2="143" y1="338.5781" y2="373.5781"/><polygon fill="#A80036" points="139,363.5781,143,373.5781,147,363.5781,143,367.5781" style="stroke:#A80036;stroke-width:1.0;"/><line style="stroke:#A80036;stroke-width:1.5;" x1="143" x2="143" y1="185.6875" y2="233.2969"/><polygon fill="#A80036" points="139,223.2969,143,233.2969,147,223.2969,143,227.2969" style="stroke:#A80036;stroke-width:1.0;"/><line style="stroke:#A80036;stroke-width:1.5;" x1="143" x2="143" y1="469.0469" y2="503.0273"/><polygon fill="#A80036" points="139,493.0273,143,503.0273,147,493.0273,143,497.0273" style="stroke:#A80036;stroke-width:1.0;"/><line style="stroke:#A80036;stroke-width:1.5;" x1="143" x2="143" y1="632.8047" y2="667.8047"/><polygon fill="#A80036" points="139,657.8047,143,667.8047,147,657.8047,143,661.8047" style="stroke:#A80036;stroke-width:1.0;"/><line style="stroke:#A80036;stroke-width:1.5;" x1="143" x2="143" y1="538.1211" y2="597.7109"/><polygon fill="#A80036" points="139,587.7109,143,597.7109,147,587.7109,143,591.7109" style="stroke:#A80036;stroke-width:1.0;"/><line style="stroke:#A80036;stroke-width:1.5;" x1="143" x2="143" y1="818.9336" y2="867.2656"/><polygon fill="#A80036" points="139,857.2656,143,867.2656,147,857.2656,143,861.2656" style="stroke:#A80036;stroke-width:1.0;"/><line style="stroke:#A80036;stroke-width:1.5;" x1="143" x2="143" y1="902.3594" y2="922.3594"/><polygon fill="#A80036" points="139,912.3594,143,922.3594,147,912.3594,143,916.3594" style="stroke:#A80036;stroke-width:1.0;"/><line style="stroke:#A80036;stroke-width:1.5;" x1="143" x2="143" y1="957.4531" y2="977.4531"/><polygon fill="#A80036" points="139,967.4531,143,977.4531,147,967.4531,143,971.4531" style="stroke:#A80036;stroke-width:1.0;"/><line style="stroke:#A80036;stroke-width:1.5;" x1="143" x2="143" y1="1012.5469" y2="1032.5469"/><polygon fill="#A80036" points="139,1022.5469,143,1032.5469,147,1022.5469,143,1026.5469" style="stroke:#A80036;stroke-width:1.0;"/><line style="stroke:#A80036;stroke-width:1.5;" x1="143" x2="143" y1="702.8984" y2="783.8398"/><polygon fill="#A80036" points="139,773.8398,143,783.8398,147,773.8398,143,777.8398" style="stroke:#A80036;stroke-width:1.0;"/><line style="stroke:#A80036;stroke-width:1.5;" x1="143" x2="143" y1="1162.9199" y2="1182.9199"/><polygon fill="#A80036" points="139,1172.9199,143,1182.9199,147,1172.9199,143,1176.9199" style="stroke:#A80036;stroke-width:1.0;"/><line style="stroke:#A80036;stroke-width:1.5;" x1="143" x2="143" y1="1218.0137" y2="1238.0137"/><polygon fill="#A80036" points="139,1228.0137,143,1238.0137,147,1228.0137,143,1232.0137" style="stroke:#A80036;stroke-width:1.0;"/><line style="stroke:#A80036;stroke-width:1.5;" x1="143" x2="143" y1="1273.1074" y2="1293.1074"/><polygon fill="#A80036" points="139,1283.1074,143,1293.1074,147,1283.1074,143,1287.1074" style="stroke:#A80036;stroke-width:1.0;"/><line style="stroke:#A80036;stroke-width:1.5;" x1="143" x2="143" y1="1067.6406" y2="1127.8262"/><polygon fill="#A80036" points="139,1117.8262,143,1127.8262,147,1117.8262,143,1121.8262" style="stroke:#A80036;stroke-width:1.0;"/><line style="stroke:#A80036;stroke-width:1.5;" x1="143" x2="143" y1="1328.2012" y2="1360.2012"/><polygon fill="#A80036" points="139,1350.2012,143,1360.2012,147,1350.2012,143,1354.2012" style="stroke:#A80036;stroke-width:1.0;"/><line style="stroke:#A80036;stroke-width:1.5;" x1="143" x2="143" y1="1395.2949" y2="1415.2949"/><polygon fill="#A80036" points="139,1405.2949,143,1415.2949,147,1405.2949,143,1409.2949" style="stroke:#A80036;stroke-width:1.0;"/><text fill="#888888" font-family="sans-serif" font-size="10" lengthAdjust="spacing" textLength="96" x="251.75" y="1452.6758">2021.12.13 at 13:51</text><text fill="#888888" font-family="sans-serif" font-size="10" lengthAdjust="spacing" textLength="172" x="213.75" y="1465.2539">engineering_analysis_workflow.puml</text><!--MD5=[17c9fb485f9a271bc7efd4bad82f625d]
@startuml engineering_analysis_workflow
skinparam titleBorderRoundCorner 15
skinparam titleBorderThickness 2
skinparam titleBorderColor red
skinparam titleBackgroundColor Tomato

title Engineering Analysis \n Typical Workflow 
        note right
            Markdown for:
             Maintenance 
             Portability
             Add flowcharts in puml
        end note

start

    partition "Design Data and Methodology Preperation" {

        note right
            Markdown for:
             Maintenance 
             Portability
             Add flowcharts in puml
        end note

        :Standard design data template;
        :data known
          Document;
        :data unknown
            Fill in Generic assumptions
            Fill other assumptions 
            Leave Blanks
            Use color codes;
    }

    :Communicate Status to Client;
        note right
            md: 
                Send as attachment? or 
                repo link 
        end note
    partition "Design Data and Methodology Approval" {

        note right
            Can be cyclic (2-3 iterations)
            Prepare to run draft analysis
            Assume analysis is always re-analysis
            Provide timeline to client
        end note

        :Client Reviews;
        :Get client confirmation;

    }


    partition "Analysis" {
    : Setoff 2 Analysis Matrix;

        note right
            Each matrix set:
             should give operating envelopes
             high level answers
            Guide with next steps
            Helps define re-analysis and postprocess requirements
        end note

    : PostProcess results;
    : Spot check animations;
    : Review results;
    : Client communication;
    }

    partition "Full Analysis, Postprocess and Results" {
    : Set up full analysis;
    : Postpcoess;
    : Prepare results and charts;
    : Document conclusions;
    }

: Full Report;

stop

footer
%date("yyyy.MM.dd' at 'HH:mm")
%filename()
end footer

@enduml

@startuml engineering_analysis_workflow
skinparam titleBorderRoundCorner 15
skinparam titleBorderThickness 2
skinparam titleBorderColor red
skinparam titleBackgroundColor Tomato

title Engineering Analysis \n Typical Workflow 
        note right
            Markdown for:
             Maintenance 
             Portability
             Add flowcharts in puml
        end note

start

    partition "Design Data and Methodology Preperation" {

        note right
            Markdown for:
             Maintenance 
             Portability
             Add flowcharts in puml
        end note

        :Standard design data template;
        :data known
          Document;
        :data unknown
            Fill in Generic assumptions
            Fill other assumptions 
            Leave Blanks
            Use color codes;
    }

    :Communicate Status to Client;
        note right
            md: 
                Send as attachment? or 
                repo link 
        end note
    partition "Design Data and Methodology Approval" {

        note right
            Can be cyclic (2-3 iterations)
            Prepare to run draft analysis
            Assume analysis is always re-analysis
            Provide timeline to client
        end note

        :Client Reviews;
        :Get client confirmation;

    }


    partition "Analysis" {
    : Setoff 2 Analysis Matrix;

        note right
            Each matrix set:
             should give operating envelopes
             high level answers
            Guide with next steps
            Helps define re-analysis and postprocess requirements
        end note

    : PostProcess results;
    : Spot check animations;
    : Review results;
    : Client communication;
    }

    partition "Full Analysis, Postprocess and Results" {
    : Set up full analysis;
    : Postpcoess;
    : Prepare results and charts;
    : Document conclusions;
    }

: Full Report;

stop

footer
2021.12.13 at 13:51
engineering_analysis_workflow.puml
end footer

@enduml

PlantUML version 1.2021.14(Fri Nov 12 10:46:50 CST 2021)
(GPL source distribution)
Java Runtime: OpenJDK Runtime Environment
JVM: OpenJDK 64-Bit Server VM
Default Encoding: Cp1252
Language: en
Country: US
--></g></svg>