<?xml version="1.0" encoding="UTF-8" standalone="no"?><svg xmlns="http://www.w3.org/2000/svg" xmlns:xlink="http://www.w3.org/1999/xlink" contentScriptType="application/ecmascript" contentStyleType="text/css" height="1462px" preserveAspectRatio="none" style="width:601px;height:1462px;background:#FFFFFF;" version="1.1" viewBox="0 0 601 1462" width="601px" zoomAndPan="magnify"><defs><filter height="300%" id="f1mnrukvhp6xll" width="300%" x="-1" y="-1"><feGaussianBlur result="blurOut" stdDeviation="2.0"/><feColorMatrix in="blurOut" result="blurOut2" type="matrix" values="0 0 0 0 0 0 0 0 0 0 0 0 0 0 0 0 0 0 .4 0"/><feOffset dx="4.0" dy="4.0" in="blurOut2" result="blurOut3"/><feBlend in="SourceGraphic" in2="blurOut3" mode="normal"/></filter></defs><g><rect fill="#FF6347" height="55.2813" rx="7.5" ry="7.5" style="stroke:#FF0000;stroke-width:2.0;" width="188" x="205.25" y="12"/><text fill="#000000" font-family="sans-serif" font-size="18" lengthAdjust="spacing" textLength="167" x="213.25" y="35.6855">Engineering Analysis</text><text fill="#000000" font-family="sans-serif" font-size="18" lengthAdjust="spacing" textLength="137" x="233.25" y="58.3262">Typical Workflow</text><path d="M65,70.2813 L65,129.3359 L221,129.3359 L221,80.2813 L211,70.2813 L65,70.2813 " fill="#FBFB77" filter="url(#f1mnrukvhp6xll)" style="stroke:#A80036;stroke-width:1.0;"/><path d="M211,70.2813 L211,80.2813 L221,80.2813 L211,70.2813 " fill="#FBFB77" style="stroke:#A80036;stroke-width:1.0;"/><text fill="#000000" font-family="sans-serif" font-size="13" lengthAdjust="spacing" textLength="40" x="71" y="88.7764">TODO:</text><text fill="#000000" font-family="sans-serif" font-size="13" lengthAdjust="spacing" textLength="127" x="75" y="105.1279">Need 2 track workflow</text><text fill="#000000" font-family="sans-serif" font-size="13" lengthAdjust="spacing" textLength="79" x="75" y="121.4795">Add timelines</text><ellipse cx="143" cy="159.3359" fill="#000000" filter="url(#f1mnrukvhp6xll)" rx="10" ry="10" style="stroke:none;stroke-width:1.0;"/><rect fill="#FFFFFF" filter="url(#f1mnrukvhp6xll)" height="285.3594" style="stroke:#000000;stroke-width:2.0;" width="385" x="38.5" y="179.3359"/><path d="M317.5,179.3359 L317.5,189.9453 L307.5,199.9453 L38.5,199.9453 " fill="none" style="stroke:#000000;stroke-width:2.0;"/><text fill="#000000" font-family="sans-serif" font-size="14" lengthAdjust="spacing" textLength="269" x="41.5" y="194.8691">Design Data and Methodology Preperation</text><path d="M247.5,289.6172 L247.5,365.0234 L403.5,365.0234 L403.5,299.6172 L393.5,289.6172 L247.5,289.6172 " fill="#FBFB77" filter="url(#f1mnrukvhp6xll)" style="stroke:#A80036;stroke-width:1.0;"/><path d="M393.5,289.6172 L393.5,299.6172 L403.5,299.6172 L393.5,289.6172 " fill="#FBFB77" style="stroke:#A80036;stroke-width:1.0;"/><text fill="#000000" font-family="sans-serif" font-size="13" lengthAdjust="spacing" textLength="81" x="253.5" y="308.1123">Markdown for:</text><text fill="#000000" font-family="sans-serif" font-size="13" lengthAdjust="spacing" textLength="74" x="257.5" y="324.4639">Maintenance</text><text fill="#000000" font-family="sans-serif" font-size="13" lengthAdjust="spacing" textLength="58" x="257.5" y="340.8154">Portability</text><text fill="#000000" font-family="sans-serif" font-size="13" lengthAdjust="spacing" textLength="131" x="257.5" y="357.167">Add flowcharts in puml</text><rect fill="#FEFECE" filter="url(#f1mnrukvhp6xll)" height="35.0938" rx="12.5" ry="12.5" style="stroke:#A80036;stroke-width:1.5;" width="189" x="48.5" y="216.9453"/><text fill="#000000" font-family="sans-serif" font-size="12" lengthAdjust="spacing" textLength="169" x="58.5" y="239.4023">Standard design data template</text><rect fill="#FEFECE" filter="url(#f1mnrukvhp6xll)" height="50.1875" rx="12.5" ry="12.5" style="stroke:#A80036;stroke-width:1.5;" width="83" x="101.5" y="272.0391"/><text fill="#000000" font-family="sans-serif" font-size="12" lengthAdjust="spacing" textLength="63" x="111.5" y="294.4961">data known</text><text fill="#000000" font-family="sans-serif" font-size="12" lengthAdjust="spacing" textLength="57" x="117.5" y="309.5898">Document</text><rect fill="#FEFECE" filter="url(#f1mnrukvhp6xll)" height="95.4688" rx="12.5" ry="12.5" style="stroke:#A80036;stroke-width:1.5;" width="183" x="51.5" y="357.2266"/><text fill="#000000" font-family="sans-serif" font-size="12" lengthAdjust="spacing" textLength="77" x="61.5" y="379.6836">data unknown</text><text fill="#000000" font-family="sans-serif" font-size="12" lengthAdjust="spacing" textLength="151" x="73.5" y="394.7773">Fill in Generic assumptions</text><text fill="#000000" font-family="sans-serif" font-size="12" lengthAdjust="spacing" textLength="123" x="73.5" y="409.8711">Fill other assumptions</text><text fill="#000000" font-family="sans-serif" font-size="12" lengthAdjust="spacing" textLength="74" x="73.5" y="424.9648">Leave Blanks</text><text fill="#000000" font-family="sans-serif" font-size="12" lengthAdjust="spacing" textLength="90" x="73.5" y="440.0586">Use color codes</text><path d="M255,474.6953 L255,500.2227 L235,504.2227 L255,508.2227 L255,533.75 A0,0 0 0 0 255,533.75 L435,533.75 A0,0 0 0 0 435,533.75 L435,484.6953 L425,474.6953 L255,474.6953 A0,0 0 0 0 255,474.6953 " fill="#FBFB77" filter="url(#f1mnrukvhp6xll)" style="stroke:#A80036;stroke-width:1.0;"/><path d="M425,474.6953 L425,484.6953 L435,484.6953 L425,474.6953 " fill="#FBFB77" style="stroke:#A80036;stroke-width:1.0;"/><text fill="#000000" font-family="sans-serif" font-size="13" lengthAdjust="spacing" textLength="22" x="261" y="493.1904">md:</text><text fill="#000000" font-family="sans-serif" font-size="13" lengthAdjust="spacing" textLength="139" x="277" y="509.542">Send as attachment? or</text><text fill="#000000" font-family="sans-serif" font-size="13" lengthAdjust="spacing" textLength="49" x="277" y="525.8936">repo link</text><rect fill="#FEFECE" filter="url(#f1mnrukvhp6xll)" height="35.0938" rx="12.5" ry="12.5" style="stroke:#A80036;stroke-width:1.5;" width="184" x="51" y="486.6758"/><text fill="#000000" font-family="sans-serif" font-size="12" lengthAdjust="spacing" textLength="164" x="61" y="509.1328">Communicate Status to Client</text><rect fill="#FFFFFF" filter="url(#f1mnrukvhp6xll)" height="154.7969" style="stroke:#000000;stroke-width:2.0;" width="428" x="62" y="543.75"/><path d="M323,543.75 L323,554.3594 L313,564.3594 L62,564.3594 " fill="none" style="stroke:#000000;stroke-width:2.0;"/><text fill="#000000" font-family="sans-serif" font-size="14" lengthAdjust="spacing" textLength="251" x="65" y="559.2832">Design Data and Methodology Approval</text><path d="M224,596.25 L224,671.6563 L470,671.6563 L470,606.25 L460,596.25 L224,596.25 " fill="#FBFB77" filter="url(#f1mnrukvhp6xll)" style="stroke:#A80036;stroke-width:1.0;"/><path d="M460,596.25 L460,606.25 L470,606.25 L460,596.25 " fill="#FBFB77" style="stroke:#A80036;stroke-width:1.0;"/><text fill="#000000" font-family="sans-serif" font-size="13" lengthAdjust="spacing" textLength="166" x="230" y="614.7451">Can be cyclic (2-3 iterations)</text><text fill="#000000" font-family="sans-serif" font-size="13" lengthAdjust="spacing" textLength="163" x="230" y="631.0967">Prepare to run draft analysis</text><text fill="#000000" font-family="sans-serif" font-size="13" lengthAdjust="spacing" textLength="225" x="230" y="647.4482">Assume analysis is always re-analysis</text><text fill="#000000" font-family="sans-serif" font-size="13" lengthAdjust="spacing" textLength="141" x="230" y="663.7998">Provide timeline to client</text><rect fill="#FEFECE" filter="url(#f1mnrukvhp6xll)" height="35.0938" rx="12.5" ry="12.5" style="stroke:#A80036;stroke-width:1.5;" width="102" x="92" y="581.3594"/><text fill="#000000" font-family="sans-serif" font-size="12" lengthAdjust="spacing" textLength="82" x="102" y="603.8164">Client Reviews</text><rect fill="#FEFECE" filter="url(#f1mnrukvhp6xll)" height="35.0938" rx="12.5" ry="12.5" style="stroke:#A80036;stroke-width:1.5;" width="142" x="72" y="651.4531"/><text fill="#000000" font-family="sans-serif" font-size="12" lengthAdjust="spacing" textLength="122" x="82" y="673.9102">Get client confirmation</text><rect fill="#FFFFFF" filter="url(#f1mnrukvhp6xll)" height="354.7422" style="stroke:#000000;stroke-width:2.0;" width="525.5" x="59" y="708.5469"/><path d="M121,708.5469 L121,719.1563 L111,729.1563 L59,729.1563 " fill="none" style="stroke:#000000;stroke-width:2.0;"/><text fill="#000000" font-family="sans-serif" font-size="14" lengthAdjust="spacing" textLength="52" x="62" y="724.0801">Analysis</text><path d="M236.5,739.1563 L236.5,781.0352 L216.5,785.0352 L236.5,789.0352 L236.5,830.9141 A0,0 0 0 0 236.5,830.9141 L574.5,830.9141 A0,0 0 0 0 574.5,830.9141 L574.5,749.1563 L564.5,739.1563 L236.5,739.1563 A0,0 0 0 0 236.5,739.1563 " fill="#FBFB77" filter="url(#f1mnrukvhp6xll)" style="stroke:#A80036;stroke-width:1.0;"/><path d="M564.5,739.1563 L564.5,749.1563 L574.5,749.1563 L564.5,739.1563 " fill="#FBFB77" style="stroke:#A80036;stroke-width:1.0;"/><text fill="#000000" font-family="sans-serif" font-size="13" lengthAdjust="spacing" textLength="96" x="242.5" y="757.6514">Each matrix set:</text><text fill="#000000" font-family="sans-serif" font-size="13" lengthAdjust="spacing" textLength="182" x="246.5" y="774.0029">should give operating envelopes</text><text fill="#000000" font-family="sans-serif" font-size="13" lengthAdjust="spacing" textLength="105" x="246.5" y="790.3545">high level answers</text><text fill="#000000" font-family="sans-serif" font-size="13" lengthAdjust="spacing" textLength="126" x="242.5" y="806.7061">Guide with next steps</text><text fill="#000000" font-family="sans-serif" font-size="13" lengthAdjust="spacing" textLength="317" x="242.5" y="823.0576">Helps define re-analysis and postprocess requirements</text><rect fill="#FEFECE" filter="url(#f1mnrukvhp6xll)" height="35.0938" rx="12.5" ry="12.5" style="stroke:#A80036;stroke-width:1.5;" width="147" x="69.5" y="767.4883"/><text fill="#000000" font-family="sans-serif" font-size="12" lengthAdjust="spacing" textLength="124" x="82.5" y="789.9453">Setoff 2 Analysis Matrix</text><rect fill="#FEFECE" filter="url(#f1mnrukvhp6xll)" height="35.0938" rx="12.5" ry="12.5" style="stroke:#A80036;stroke-width:1.5;" width="135" x="75.5" y="850.9141"/><text fill="#000000" font-family="sans-serif" font-size="12" lengthAdjust="spacing" textLength="112" x="88.5" y="873.3711">PostProcess results</text><rect fill="#FEFECE" filter="url(#f1mnrukvhp6xll)" height="35.0938" rx="12.5" ry="12.5" style="stroke:#A80036;stroke-width:1.5;" width="148" x="69" y="906.0078"/><text fill="#000000" font-family="sans-serif" font-size="12" lengthAdjust="spacing" textLength="125" x="82" y="928.4648">Spot check animations</text><rect fill="#FEFECE" filter="url(#f1mnrukvhp6xll)" height="35.0938" rx="12.5" ry="12.5" style="stroke:#A80036;stroke-width:1.5;" width="104" x="91" y="961.1016"/><text fill="#000000" font-family="sans-serif" font-size="12" lengthAdjust="spacing" textLength="81" x="104" y="983.5586">Review results</text><rect fill="#FEFECE" filter="url(#f1mnrukvhp6xll)" height="35.0938" rx="12.5" ry="12.5" style="stroke:#A80036;stroke-width:1.5;" width="143" x="71.5" y="1016.1953"/><text fill="#000000" font-family="sans-serif" font-size="12" lengthAdjust="spacing" textLength="120" x="84.5" y="1038.6523">Client communication</text><rect fill="#FFFFFF" filter="url(#f1mnrukvhp6xll)" height="249.9844" style="stroke:#000000;stroke-width:2.0;" width="264" x="11" y="1073.8652"/><path d="M265,1073.8652 L265,1084.4746 L255,1094.4746 L11,1094.4746 " fill="none" style="stroke:#000000;stroke-width:2.0;"/><text fill="#000000" font-family="sans-serif" font-size="14" lengthAdjust="spacing" textLength="244" x="14" y="1089.3984">Full Analysis, Postprocess and Results</text><rect fill="#FEFECE" filter="url(#f1mnrukvhp6xll)" height="35.0938" rx="12.5" ry="12.5" style="stroke:#A80036;stroke-width:1.5;" width="126" x="80" y="1111.4746"/><text fill="#000000" font-family="sans-serif" font-size="12" lengthAdjust="spacing" textLength="103" x="93" y="1133.9316">Set up full analysis</text><rect fill="#FEFECE" filter="url(#f1mnrukvhp6xll)" height="35.0938" rx="12.5" ry="12.5" style="stroke:#A80036;stroke-width:1.5;" width="89" x="98.5" y="1166.5684"/><text fill="#000000" font-family="sans-serif" font-size="12" lengthAdjust="spacing" textLength="66" x="111.5" y="1189.0254">Postpcoess</text><rect fill="#FEFECE" filter="url(#f1mnrukvhp6xll)" height="35.0938" rx="12.5" ry="12.5" style="stroke:#A80036;stroke-width:1.5;" width="169" x="58.5" y="1221.6621"/><text fill="#000000" font-family="sans-serif" font-size="12" lengthAdjust="spacing" textLength="146" x="71.5" y="1244.1191">Prepare results and charts</text><rect fill="#FEFECE" filter="url(#f1mnrukvhp6xll)" height="35.0938" rx="12.5" ry="12.5" style="stroke:#A80036;stroke-width:1.5;" width="150" x="68" y="1276.7559"/><text fill="#000000" font-family="sans-serif" font-size="12" lengthAdjust="spacing" textLength="127" x="81" y="1299.2129">Document conclusions</text><rect fill="#FEFECE" filter="url(#f1mnrukvhp6xll)" height="35.0938" rx="12.5" ry="12.5" style="stroke:#A80036;stroke-width:1.5;" width="83" x="101.5" y="1343.8496"/><text fill="#000000" font-family="sans-serif" font-size="12" lengthAdjust="spacing" textLength="60" x="114.5" y="1366.3066">Full Report</text><ellipse cx="143" cy="1409.9434" fill="#FFFFFF" filter="url(#f1mnrukvhp6xll)" rx="11" ry="11" style="stroke:#000000;stroke-width:1.0;"/><ellipse cx="143" cy="1409.9434" fill="#000000" rx="6" ry="6" style="stroke:#7F7F7F;stroke-width:1.0;"/><line style="stroke:#A80036;stroke-width:1.5;" x1="143" x2="143" y1="129.3359" y2="149.3359"/><polygon fill="#A80036" points="139,139.3359,143,149.3359,147,139.3359,143,143.3359" style="stroke:#A80036;stroke-width:1.0;"/><line style="stroke:#A80036;stroke-width:1.5;" x1="143" x2="143" y1="252.0391" y2="272.0391"/><polygon fill="#A80036" points="139,262.0391,143,272.0391,147,262.0391,143,266.0391" style="stroke:#A80036;stroke-width:1.0;"/><line style="stroke:#A80036;stroke-width:1.5;" x1="143" x2="143" y1="322.2266" y2="357.2266"/><polygon fill="#A80036" points="139,347.2266,143,357.2266,147,347.2266,143,351.2266" style="stroke:#A80036;stroke-width:1.0;"/><line style="stroke:#A80036;stroke-width:1.5;" x1="143" x2="143" y1="169.3359" y2="216.9453"/><polygon fill="#A80036" points="139,206.9453,143,216.9453,147,206.9453,143,210.9453" style="stroke:#A80036;stroke-width:1.0;"/><line style="stroke:#A80036;stroke-width:1.5;" x1="143" x2="143" y1="452.6953" y2="486.6758"/><polygon fill="#A80036" points="139,476.6758,143,486.6758,147,476.6758,143,480.6758" style="stroke:#A80036;stroke-width:1.0;"/><line style="stroke:#A80036;stroke-width:1.5;" x1="143" x2="143" y1="616.4531" y2="651.4531"/><polygon fill="#A80036" points="139,641.4531,143,651.4531,147,641.4531,143,645.4531" style="stroke:#A80036;stroke-width:1.0;"/><line style="stroke:#A80036;stroke-width:1.5;" x1="143" x2="143" y1="521.7695" y2="581.3594"/><polygon fill="#A80036" points="139,571.3594,143,581.3594,147,571.3594,143,575.3594" style="stroke:#A80036;stroke-width:1.0;"/><line style="stroke:#A80036;stroke-width:1.5;" x1="143" x2="143" y1="802.582" y2="850.9141"/><polygon fill="#A80036" points="139,840.9141,143,850.9141,147,840.9141,143,844.9141" style="stroke:#A80036;stroke-width:1.0;"/><line style="stroke:#A80036;stroke-width:1.5;" x1="143" x2="143" y1="886.0078" y2="906.0078"/><polygon fill="#A80036" points="139,896.0078,143,906.0078,147,896.0078,143,900.0078" style="stroke:#A80036;stroke-width:1.0;"/><line style="stroke:#A80036;stroke-width:1.5;" x1="143" x2="143" y1="941.1016" y2="961.1016"/><polygon fill="#A80036" points="139,951.1016,143,961.1016,147,951.1016,143,955.1016" style="stroke:#A80036;stroke-width:1.0;"/><line style="stroke:#A80036;stroke-width:1.5;" x1="143" x2="143" y1="996.1953" y2="1016.1953"/><polygon fill="#A80036" points="139,1006.1953,143,1016.1953,147,1006.1953,143,1010.1953" style="stroke:#A80036;stroke-width:1.0;"/><line style="stroke:#A80036;stroke-width:1.5;" x1="143" x2="143" y1="686.5469" y2="767.4883"/><polygon fill="#A80036" points="139,757.4883,143,767.4883,147,757.4883,143,761.4883" style="stroke:#A80036;stroke-width:1.0;"/><line style="stroke:#A80036;stroke-width:1.5;" x1="143" x2="143" y1="1146.5684" y2="1166.5684"/><polygon fill="#A80036" points="139,1156.5684,143,1166.5684,147,1156.5684,143,1160.5684" style="stroke:#A80036;stroke-width:1.0;"/><line style="stroke:#A80036;stroke-width:1.5;" x1="143" x2="143" y1="1201.6621" y2="1221.6621"/><polygon fill="#A80036" points="139,1211.6621,143,1221.6621,147,1211.6621,143,1215.6621" style="stroke:#A80036;stroke-width:1.0;"/><line style="stroke:#A80036;stroke-width:1.5;" x1="143" x2="143" y1="1256.7559" y2="1276.7559"/><polygon fill="#A80036" points="139,1266.7559,143,1276.7559,147,1266.7559,143,1270.7559" style="stroke:#A80036;stroke-width:1.0;"/><line style="stroke:#A80036;stroke-width:1.5;" x1="143" x2="143" y1="1051.2891" y2="1111.4746"/><polygon fill="#A80036" points="139,1101.4746,143,1111.4746,147,1101.4746,143,1105.4746" style="stroke:#A80036;stroke-width:1.0;"/><line style="stroke:#A80036;stroke-width:1.5;" x1="143" x2="143" y1="1311.8496" y2="1343.8496"/><polygon fill="#A80036" points="139,1333.8496,143,1343.8496,147,1333.8496,143,1337.8496" style="stroke:#A80036;stroke-width:1.0;"/><line style="stroke:#A80036;stroke-width:1.5;" x1="143" x2="143" y1="1378.9434" y2="1398.9434"/><polygon fill="#A80036" points="139,1388.9434,143,1398.9434,147,1388.9434,143,1392.9434" style="stroke:#A80036;stroke-width:1.0;"/><text fill="#888888" font-family="sans-serif" font-size="10" lengthAdjust="spacing" textLength="96" x="251.75" y="1436.3242">2021.12.13 at 13:53</text><text fill="#888888" font-family="sans-serif" font-size="10" lengthAdjust="spacing" textLength="172" x="213.75" y="1448.9023">engineering_analysis_workflow.puml</text><!--MD5=[e84cbdac19fc7012dffba232731d4096]
@startuml engineering_analysis_workflow
skinparam titleBorderRoundCorner 15
skinparam titleBorderThickness 2
skinparam titleBorderColor red
skinparam titleBackgroundColor Tomato

title Engineering Analysis \n Typical Workflow 

        note right
            TODO:
             Need 2 track workflow 
             Add timelines
        end note

start

    partition "Design Data and Methodology Preperation" {

        note right
            Markdown for:
             Maintenance 
             Portability
             Add flowcharts in puml
        end note

        :Standard design data template;
        :data known
          Document;
        :data unknown
            Fill in Generic assumptions
            Fill other assumptions 
            Leave Blanks
            Use color codes;
    }

    :Communicate Status to Client;
        note right
            md: 
                Send as attachment? or 
                repo link 
        end note
    partition "Design Data and Methodology Approval" {

        note right
            Can be cyclic (2-3 iterations)
            Prepare to run draft analysis
            Assume analysis is always re-analysis
            Provide timeline to client
        end note

        :Client Reviews;
        :Get client confirmation;

    }


    partition "Analysis" {
    : Setoff 2 Analysis Matrix;

        note right
            Each matrix set:
             should give operating envelopes
             high level answers
            Guide with next steps
            Helps define re-analysis and postprocess requirements
        end note

    : PostProcess results;
    : Spot check animations;
    : Review results;
    : Client communication;
    }

    partition "Full Analysis, Postprocess and Results" {
    : Set up full analysis;
    : Postpcoess;
    : Prepare results and charts;
    : Document conclusions;
    }

: Full Report;

stop

footer
%date("yyyy.MM.dd' at 'HH:mm")
%filename()
end footer

@enduml

@startuml engineering_analysis_workflow
skinparam titleBorderRoundCorner 15
skinparam titleBorderThickness 2
skinparam titleBorderColor red
skinparam titleBackgroundColor Tomato

title Engineering Analysis \n Typical Workflow 

        note right
            TODO:
             Need 2 track workflow 
             Add timelines
        end note

start

    partition "Design Data and Methodology Preperation" {

        note right
            Markdown for:
             Maintenance 
             Portability
             Add flowcharts in puml
        end note

        :Standard design data template;
        :data known
          Document;
        :data unknown
            Fill in Generic assumptions
            Fill other assumptions 
            Leave Blanks
            Use color codes;
    }

    :Communicate Status to Client;
        note right
            md: 
                Send as attachment? or 
                repo link 
        end note
    partition "Design Data and Methodology Approval" {

        note right
            Can be cyclic (2-3 iterations)
            Prepare to run draft analysis
            Assume analysis is always re-analysis
            Provide timeline to client
        end note

        :Client Reviews;
        :Get client confirmation;

    }


    partition "Analysis" {
    : Setoff 2 Analysis Matrix;

        note right
            Each matrix set:
             should give operating envelopes
             high level answers
            Guide with next steps
            Helps define re-analysis and postprocess requirements
        end note

    : PostProcess results;
    : Spot check animations;
    : Review results;
    : Client communication;
    }

    partition "Full Analysis, Postprocess and Results" {
    : Set up full analysis;
    : Postpcoess;
    : Prepare results and charts;
    : Document conclusions;
    }

: Full Report;

stop

footer
2021.12.13 at 13:53
engineering_analysis_workflow.puml
end footer

@enduml

PlantUML version 1.2021.14(Fri Nov 12 10:46:50 CST 2021)
(GPL source distribution)
Java Runtime: OpenJDK Runtime Environment
JVM: OpenJDK 64-Bit Server VM
Default Encoding: Cp1252
Language: en
Country: US
--></g></svg>