<?xml version="1.0" encoding="UTF-8" standalone="no"?><svg xmlns="http://www.w3.org/2000/svg" xmlns:xlink="http://www.w3.org/1999/xlink" contentScriptType="application/ecmascript" contentStyleType="text/css" height="860px" preserveAspectRatio="none" style="width:1288px;height:860px;background:#FFFFFF;" version="1.1" viewBox="0 0 1288 860" width="1288px" zoomAndPan="magnify"><defs/><g><text fill="#000000" font-family="Serif" font-size="40" lengthAdjust="spacing" textLength="56" x="4" y="105.9141">Mo</text><text fill="#000000" font-family="Serif" font-size="40" lengthAdjust="spacing" textLength="48" x="72" y="105.9141">Tu</text><text fill="#000000" font-family="Serif" font-size="40" lengthAdjust="spacing" textLength="56" x="132" y="105.9141">We</text><text fill="#000000" font-family="Serif" font-size="40" lengthAdjust="spacing" textLength="48" x="200" y="105.9141">Th</text><text fill="#000000" font-family="Serif" font-size="40" lengthAdjust="spacing" textLength="36" x="270" y="105.9141">Fr</text><text fill="#000000" font-family="Serif" font-size="40" lengthAdjust="spacing" textLength="40" x="332" y="105.9141">Sa</text><text fill="#000000" font-family="Serif" font-size="40" lengthAdjust="spacing" textLength="44" x="394" y="105.9141">Su</text><text fill="#000000" font-family="Serif" font-size="40" lengthAdjust="spacing" textLength="56" x="452" y="105.9141">Mo</text><text fill="#000000" font-family="Serif" font-size="40" lengthAdjust="spacing" textLength="48" x="520" y="105.9141">Tu</text><text fill="#000000" font-family="Serif" font-size="40" lengthAdjust="spacing" textLength="56" x="580" y="105.9141">We</text><text fill="#000000" font-family="Serif" font-size="40" lengthAdjust="spacing" textLength="48" x="648" y="105.9141">Th</text><text fill="#000000" font-family="Serif" font-size="40" lengthAdjust="spacing" textLength="36" x="718" y="105.9141">Fr</text><text fill="#000000" font-family="Serif" font-size="40" lengthAdjust="spacing" textLength="40" x="780" y="105.9141">Sa</text><text fill="#000000" font-family="Serif" font-size="40" lengthAdjust="spacing" textLength="44" x="842" y="105.9141">Su</text><text fill="#000000" font-family="Serif" font-size="40" lengthAdjust="spacing" textLength="56" x="900" y="105.9141">Mo</text><text fill="#000000" font-family="Serif" font-size="40" lengthAdjust="spacing" textLength="48" x="968" y="105.9141">Tu</text><text fill="#000000" font-family="Serif" font-size="40" lengthAdjust="spacing" textLength="56" x="1028" y="105.9141">We</text><text fill="#000000" font-family="Serif" font-size="40" lengthAdjust="spacing" textLength="48" x="1096" y="105.9141">Th</text><text fill="#000000" font-family="Serif" font-size="40" lengthAdjust="spacing" textLength="36" x="1166" y="105.9141">Fr</text><text fill="#000000" font-family="Serif" font-size="40" lengthAdjust="spacing" textLength="40" x="1228" y="105.9141">Sa</text><text fill="#000000" font-family="Serif" font-size="40" lengthAdjust="spacing" textLength="20" x="22" y="153.9141">2</text><text fill="#000000" font-family="Serif" font-size="40" lengthAdjust="spacing" textLength="20" x="86" y="153.9141">3</text><text fill="#000000" font-family="Serif" font-size="40" lengthAdjust="spacing" textLength="20" x="150" y="153.9141">4</text><text fill="#000000" font-family="Serif" font-size="40" lengthAdjust="spacing" textLength="20" x="214" y="153.9141">5</text><text fill="#000000" font-family="Serif" font-size="40" lengthAdjust="spacing" textLength="20" x="278" y="153.9141">6</text><text fill="#000000" font-family="Serif" font-size="40" lengthAdjust="spacing" textLength="20" x="342" y="153.9141">7</text><text fill="#000000" font-family="Serif" font-size="40" lengthAdjust="spacing" textLength="20" x="406" y="153.9141">8</text><text fill="#000000" font-family="Serif" font-size="40" lengthAdjust="spacing" textLength="20" x="470" y="153.9141">9</text><text fill="#000000" font-family="Serif" font-size="40" lengthAdjust="spacing" textLength="40" x="524" y="153.9141">10</text><text fill="#000000" font-family="Serif" font-size="40" lengthAdjust="spacing" textLength="40" x="588" y="153.9141">11</text><text fill="#000000" font-family="Serif" font-size="40" lengthAdjust="spacing" textLength="40" x="652" y="153.9141">12</text><text fill="#000000" font-family="Serif" font-size="40" lengthAdjust="spacing" textLength="40" x="716" y="153.9141">13</text><text fill="#000000" font-family="Serif" font-size="40" lengthAdjust="spacing" textLength="40" x="780" y="153.9141">14</text><text fill="#000000" font-family="Serif" font-size="40" lengthAdjust="spacing" textLength="40" x="844" y="153.9141">15</text><text fill="#000000" font-family="Serif" font-size="40" lengthAdjust="spacing" textLength="40" x="908" y="153.9141">16</text><text fill="#000000" font-family="Serif" font-size="40" lengthAdjust="spacing" textLength="40" x="972" y="153.9141">17</text><text fill="#000000" font-family="Serif" font-size="40" lengthAdjust="spacing" textLength="40" x="1036" y="153.9141">18</text><text fill="#000000" font-family="Serif" font-size="40" lengthAdjust="spacing" textLength="40" x="1100" y="153.9141">19</text><text fill="#000000" font-family="Serif" font-size="40" lengthAdjust="spacing" textLength="40" x="1164" y="153.9141">20</text><text fill="#000000" font-family="Serif" font-size="40" lengthAdjust="spacing" textLength="40" x="1228" y="153.9141">21</text><text fill="#000000" font-family="Serif" font-size="48" font-weight="bold" lengthAdjust="spacing" textLength="244" x="518" y="50.2969">March 2020</text><line style="stroke:#C0C0C0;stroke-width:4.0;" x1="0" x2="0" y1="164" y2="703.4063"/><line style="stroke:#C0C0C0;stroke-width:4.0;" x1="64" x2="64" y1="164" y2="703.4063"/><line style="stroke:#C0C0C0;stroke-width:4.0;" x1="128" x2="128" y1="164" y2="703.4063"/><line style="stroke:#C0C0C0;stroke-width:4.0;" x1="192" x2="192" y1="164" y2="703.4063"/><line style="stroke:#C0C0C0;stroke-width:4.0;" x1="256" x2="256" y1="164" y2="703.4063"/><line style="stroke:#C0C0C0;stroke-width:4.0;" x1="320" x2="320" y1="164" y2="703.4063"/><line style="stroke:#C0C0C0;stroke-width:4.0;" x1="384" x2="384" y1="164" y2="703.4063"/><line style="stroke:#C0C0C0;stroke-width:4.0;" x1="448" x2="448" y1="164" y2="703.4063"/><line style="stroke:#C0C0C0;stroke-width:4.0;" x1="512" x2="512" y1="164" y2="703.4063"/><line style="stroke:#C0C0C0;stroke-width:4.0;" x1="576" x2="576" y1="164" y2="703.4063"/><line style="stroke:#C0C0C0;stroke-width:4.0;" x1="640" x2="640" y1="164" y2="703.4063"/><line style="stroke:#C0C0C0;stroke-width:4.0;" x1="704" x2="704" y1="164" y2="703.4063"/><line style="stroke:#C0C0C0;stroke-width:4.0;" x1="768" x2="768" y1="164" y2="703.4063"/><line style="stroke:#C0C0C0;stroke-width:4.0;" x1="832" x2="832" y1="164" y2="703.4063"/><line style="stroke:#C0C0C0;stroke-width:4.0;" x1="896" x2="896" y1="164" y2="703.4063"/><line style="stroke:#C0C0C0;stroke-width:4.0;" x1="960" x2="960" y1="164" y2="703.4063"/><line style="stroke:#C0C0C0;stroke-width:4.0;" x1="1024" x2="1024" y1="164" y2="703.4063"/><line style="stroke:#C0C0C0;stroke-width:4.0;" x1="1088" x2="1088" y1="164" y2="703.4063"/><line style="stroke:#C0C0C0;stroke-width:4.0;" x1="1152" x2="1152" y1="164" y2="703.4063"/><line style="stroke:#C0C0C0;stroke-width:4.0;" x1="1216" x2="1216" y1="164" y2="703.4063"/><line style="stroke:#C0C0C0;stroke-width:4.0;" x1="1280" x2="1280" y1="164" y2="703.4063"/><line style="stroke:#C0C0C0;stroke-width:4.0;" x1="0" x2="1280" y1="164" y2="164"/><line style="stroke:#C0C0C0;stroke-width:4.0;" x1="0" x2="1280" y1="703.4063" y2="703.4063"/><line style="stroke:#A80036;stroke-width:6.0;" x1="608" x2="608" y1="227.3438" y2="327.0156"/><line style="stroke:#A80036;stroke-width:6.0;" x1="608" x2="700" y1="327.0156" y2="327.0156"/><polygon fill="#A80036" points="684,311.0156,684,327.0156,684,343.0156,700,327.0156" style="stroke:#A80036;stroke-width:6.0;"/><line style="stroke:#A80036;stroke-width:6.0;" x1="636" x2="668" y1="199.6719" y2="199.6719"/><line style="stroke:#A80036;stroke-width:6.0;" x1="668" x2="668" y1="199.6719" y2="398.3594"/><line style="stroke:#A80036;stroke-width:6.0;" x1="668" x2="636" y1="398.3594" y2="398.3594"/><polygon fill="#A80036" points="652,382.3594,652,398.3594,652,414.3594,636,398.3594" style="stroke:#A80036;stroke-width:6.0;"/><line style="stroke:#A80036;stroke-width:6.0;" x1="224" x2="224" y1="426.0313" y2="497.375"/><line style="stroke:#A80036;stroke-width:6.0;" x1="224" x2="188" y1="497.375" y2="497.375"/><polygon fill="#A80036" points="204,481.375,204,497.375,204,513.375,188,497.375" style="stroke:#A80036;stroke-width:6.0;"/><line style="stroke:#A80036;stroke-width:6.0;" x1="188" x2="156" y1="398.3594" y2="398.3594"/><line style="stroke:#A80036;stroke-width:6.0;" x1="156" x2="156" y1="398.3594" y2="596.3906"/><line style="stroke:#A80036;stroke-width:6.0;" x1="156" x2="188" y1="596.3906" y2="596.3906"/><polygon fill="#A80036" points="172,580.3906,172,596.3906,172,612.3906,188,596.3906" style="stroke:#A80036;stroke-width:6.0;"/><line style="stroke:#A80036;stroke-width:6.0;" x1="608" x2="608" y1="283.3438" y2="667.7344"/><line style="stroke:#A80036;stroke-width:6.0;" x1="608" x2="700" y1="667.7344" y2="667.7344"/><polygon fill="#A80036" points="684,651.7344,684,667.7344,684,683.7344,700,667.7344" style="stroke:#A80036;stroke-width:6.0;"/><rect fill="#E6E6FA" height="55.3438" style="stroke:none;stroke-width:4.0;" width="624" x="8" y="172"/><line style="stroke:#ADD8E6;stroke-width:4.0;" x1="8" x2="632" y1="172" y2="172"/><line style="stroke:#ADD8E6;stroke-width:4.0;" x1="8" x2="632" y1="227.3438" y2="227.3438"/><line style="stroke:#ADD8E6;stroke-width:4.0;" x1="8" x2="8" y1="172" y2="227.3438"/><line style="stroke:#ADD8E6;stroke-width:4.0;" x1="632" x2="632" y1="172" y2="227.3438"/><polygon fill="#000000" points="608,243.3438,628,263.3438,608,283.3438,588,263.3438" style="stroke:#000000;stroke-width:4.0;"/><rect fill="#FF7F50" height="55.3438" style="stroke:none;stroke-width:4.0;" width="560" x="712" y="299.3438"/><line style="stroke:#008000;stroke-width:4.0;" x1="712" x2="1272" y1="299.3438" y2="299.3438"/><line style="stroke:#008000;stroke-width:4.0;" x1="712" x2="1272" y1="354.6875" y2="354.6875"/><line style="stroke:#008000;stroke-width:4.0;" x1="712" x2="712" y1="299.3438" y2="354.6875"/><line style="stroke:#008000;stroke-width:4.0;" x1="1272" x2="1272" y1="299.3438" y2="354.6875"/><rect fill="#FEFECE" height="55.3438" style="stroke:none;stroke-width:4.0;" width="432" x="200" y="370.6875"/><line style="stroke:#A80036;stroke-width:4.0;" x1="200" x2="632" y1="370.6875" y2="370.6875"/><line style="stroke:#A80036;stroke-width:4.0;" x1="200" x2="632" y1="426.0313" y2="426.0313"/><line style="stroke:#A80036;stroke-width:4.0;" x1="200" x2="200" y1="370.6875" y2="426.0313"/><line style="stroke:#A80036;stroke-width:4.0;" x1="632" x2="632" y1="370.6875" y2="426.0313"/><rect fill="#FEFECE" height="110.6875" style="stroke:none;stroke-width:4.0;" width="176" x="8" y="442.0313"/><line style="stroke:#A80036;stroke-width:4.0;" x1="8" x2="184" y1="442.0313" y2="442.0313"/><line style="stroke:#A80036;stroke-width:4.0;" x1="8" x2="184" y1="552.7188" y2="552.7188"/><line style="stroke:#A80036;stroke-width:4.0;" x1="8" x2="8" y1="442.0313" y2="552.7188"/><line style="stroke:#A80036;stroke-width:4.0;" x1="184" x2="184" y1="442.0313" y2="552.7188"/><rect fill="#FF7F50" height="55.3438" style="stroke:none;stroke-width:4.0;" width="304" x="200" y="568.7188"/><line style="stroke:#008000;stroke-width:4.0;" x1="200" x2="504" y1="568.7188" y2="568.7188"/><line style="stroke:#008000;stroke-width:4.0;" x1="200" x2="504" y1="624.0625" y2="624.0625"/><line style="stroke:#008000;stroke-width:4.0;" x1="200" x2="200" y1="568.7188" y2="624.0625"/><line style="stroke:#008000;stroke-width:4.0;" x1="504" x2="504" y1="568.7188" y2="624.0625"/><rect fill="#FEFECE" height="55.3438" style="stroke:none;stroke-width:4.0;" width="432" x="712" y="640.0625"/><line style="stroke:#A80036;stroke-width:4.0;" x1="712" x2="1144" y1="640.0625" y2="640.0625"/><line style="stroke:#A80036;stroke-width:4.0;" x1="712" x2="1144" y1="695.4063" y2="695.4063"/><line style="stroke:#A80036;stroke-width:4.0;" x1="712" x2="712" y1="640.0625" y2="695.4063"/><line style="stroke:#A80036;stroke-width:4.0;" x1="1144" x2="1144" y1="640.0625" y2="695.4063"/><text fill="#000000" font-family="sans-serif" font-size="44" lengthAdjust="spacing" textLength="172" x="24" y="217.6758">Prestudy</text><text fill="#000000" font-family="sans-serif" font-size="44" lengthAdjust="spacing" textLength="216" x="640" y="281.3477">Milestone 1</text><text fill="#000000" font-family="sans-serif" font-size="44" lengthAdjust="spacing" textLength="344" x="728" y="345.0195">System simulation</text><text fill="#000000" font-family="sans-serif" font-size="44" lengthAdjust="spacing" textLength="296" x="216" y="416.3633">Use cases def.</text><text fill="#000000" font-family="sans-serif" font-size="44" lengthAdjust="spacing" textLength="220" x="240" y="487.707">Compliance</text><text fill="#000000" font-family="sans-serif" font-size="44" lengthAdjust="spacing" textLength="120" x="240" y="543.0508">specs</text><text fill="#000000" font-family="sans-serif" font-size="44" lengthAdjust="spacing" textLength="268" x="216" y="614.3945">Select testers</text><text fill="#000000" font-family="sans-serif" font-size="44" lengthAdjust="spacing" textLength="244" x="728" y="685.7383">Train testers</text><text fill="#000000" font-family="Serif" font-size="40" lengthAdjust="spacing" textLength="20" x="22" y="793.3203">2</text><text fill="#000000" font-family="Serif" font-size="40" lengthAdjust="spacing" textLength="20" x="86" y="793.3203">3</text><text fill="#000000" font-family="Serif" font-size="40" lengthAdjust="spacing" textLength="20" x="150" y="793.3203">4</text><text fill="#000000" font-family="Serif" font-size="40" lengthAdjust="spacing" textLength="20" x="214" y="793.3203">5</text><text fill="#000000" font-family="Serif" font-size="40" lengthAdjust="spacing" textLength="20" x="278" y="793.3203">6</text><text fill="#000000" font-family="Serif" font-size="40" lengthAdjust="spacing" textLength="20" x="342" y="793.3203">7</text><text fill="#000000" font-family="Serif" font-size="40" lengthAdjust="spacing" textLength="20" x="406" y="793.3203">8</text><text fill="#000000" font-family="Serif" font-size="40" lengthAdjust="spacing" textLength="20" x="470" y="793.3203">9</text><text fill="#000000" font-family="Serif" font-size="40" lengthAdjust="spacing" textLength="40" x="524" y="793.3203">10</text><text fill="#000000" font-family="Serif" font-size="40" lengthAdjust="spacing" textLength="40" x="588" y="793.3203">11</text><text fill="#000000" font-family="Serif" font-size="40" lengthAdjust="spacing" textLength="40" x="652" y="793.3203">12</text><text fill="#000000" font-family="Serif" font-size="40" lengthAdjust="spacing" textLength="40" x="716" y="793.3203">13</text><text fill="#000000" font-family="Serif" font-size="40" lengthAdjust="spacing" textLength="40" x="780" y="793.3203">14</text><text fill="#000000" font-family="Serif" font-size="40" lengthAdjust="spacing" textLength="40" x="844" y="793.3203">15</text><text fill="#000000" font-family="Serif" font-size="40" lengthAdjust="spacing" textLength="40" x="908" y="793.3203">16</text><text fill="#000000" font-family="Serif" font-size="40" lengthAdjust="spacing" textLength="40" x="972" y="793.3203">17</text><text fill="#000000" font-family="Serif" font-size="40" lengthAdjust="spacing" textLength="40" x="1036" y="793.3203">18</text><text fill="#000000" font-family="Serif" font-size="40" lengthAdjust="spacing" textLength="40" x="1100" y="793.3203">19</text><text fill="#000000" font-family="Serif" font-size="40" lengthAdjust="spacing" textLength="40" x="1164" y="793.3203">20</text><text fill="#000000" font-family="Serif" font-size="40" lengthAdjust="spacing" textLength="40" x="1228" y="793.3203">21</text><text fill="#000000" font-family="Serif" font-size="40" lengthAdjust="spacing" textLength="56" x="4" y="745.3203">Mo</text><text fill="#000000" font-family="Serif" font-size="40" lengthAdjust="spacing" textLength="48" x="72" y="745.3203">Tu</text><text fill="#000000" font-family="Serif" font-size="40" lengthAdjust="spacing" textLength="56" x="132" y="745.3203">We</text><text fill="#000000" font-family="Serif" font-size="40" lengthAdjust="spacing" textLength="48" x="200" y="745.3203">Th</text><text fill="#000000" font-family="Serif" font-size="40" lengthAdjust="spacing" textLength="36" x="270" y="745.3203">Fr</text><text fill="#000000" font-family="Serif" font-size="40" lengthAdjust="spacing" textLength="40" x="332" y="745.3203">Sa</text><text fill="#000000" font-family="Serif" font-size="40" lengthAdjust="spacing" textLength="44" x="394" y="745.3203">Su</text><text fill="#000000" font-family="Serif" font-size="40" lengthAdjust="spacing" textLength="56" x="452" y="745.3203">Mo</text><text fill="#000000" font-family="Serif" font-size="40" lengthAdjust="spacing" textLength="48" x="520" y="745.3203">Tu</text><text fill="#000000" font-family="Serif" font-size="40" lengthAdjust="spacing" textLength="56" x="580" y="745.3203">We</text><text fill="#000000" font-family="Serif" font-size="40" lengthAdjust="spacing" textLength="48" x="648" y="745.3203">Th</text><text fill="#000000" font-family="Serif" font-size="40" lengthAdjust="spacing" textLength="36" x="718" y="745.3203">Fr</text><text fill="#000000" font-family="Serif" font-size="40" lengthAdjust="spacing" textLength="40" x="780" y="745.3203">Sa</text><text fill="#000000" font-family="Serif" font-size="40" lengthAdjust="spacing" textLength="44" x="842" y="745.3203">Su</text><text fill="#000000" font-family="Serif" font-size="40" lengthAdjust="spacing" textLength="56" x="900" y="745.3203">Mo</text><text fill="#000000" font-family="Serif" font-size="40" lengthAdjust="spacing" textLength="48" x="968" y="745.3203">Tu</text><text fill="#000000" font-family="Serif" font-size="40" lengthAdjust="spacing" textLength="56" x="1028" y="745.3203">We</text><text fill="#000000" font-family="Serif" font-size="40" lengthAdjust="spacing" textLength="48" x="1096" y="745.3203">Th</text><text fill="#000000" font-family="Serif" font-size="40" lengthAdjust="spacing" textLength="36" x="1166" y="745.3203">Fr</text><text fill="#000000" font-family="Serif" font-size="40" lengthAdjust="spacing" textLength="40" x="1228" y="745.3203">Sa</text><text fill="#000000" font-family="Serif" font-size="48" font-weight="bold" lengthAdjust="spacing" textLength="244" x="518" y="849.7031">March 2020</text><!--MD5=[e5bd8dbb0cf36e452a7456527d1bda68]
@startgantt
scale 4
Project starts the 2020/03/02
[Prestudy] lasts 10 days and is colored in Lavender/LightBlue
[Milestone 1] happens at [Prestudy]'s end
[System simulation] lasts 9 days and is colored in Coral/Green and starts 1 day after [Prestudy]'s end
[Use cases def.] lasts 7 days and ends at [Prestudy]'s end
[Compliance\nspecs] lasts 3 days and ends at [Use cases def.]'s start
[Select testers] is colored in Coral/Green
[Select testers] lasts 5 days and starts at [Use cases def.]'s start
[Train testers] starts 1 days after [Milestone 1]'s end and lasts 7 days
@endgantt

PlantUML version 1.2021.14(Fri Nov 12 10:46:50 CST 2021)
(GPL source distribution)
Java Runtime: OpenJDK Runtime Environment
JVM: OpenJDK 64-Bit Server VM
Default Encoding: Cp1252
Language: en
Country: US
--></g></svg>